<?xml version="1.0" standalone="no"?><!DOCTYPE svg PUBLIC "-//W3C//DTD SVG 1.1//EN" "http://www.w3.org/Graphics/SVG/1.1/DTD/svg11.dtd">
<svg class="icon" width="140px" height="140.00px" viewBox="0 0 1024 1024" version="1.1"
  xmlns="http://www.w3.org/2000/svg">
  <path d="M512 0c282.7776 0 512 229.2224 512 512s-229.2224 512-512 512S0 794.7776 0 512 229.2224 0 512 0z" fill="#FFA800" />
  <path d="M512 102.4c226.2272 0 409.6 183.3728 409.6 409.6s-183.3728 409.6-409.6 409.6S102.4 738.2272 102.4 512 285.7728 102.4 512 102.4z" fill="#FFA800" />
  <path d="M512 179.2c183.808 0 332.8 148.992 332.8 332.8s-148.992 332.8-332.8 332.8S179.2 695.808 179.2 512 328.192 179.2 512 179.2z" fill="#FF9000" />
</svg>