<?xml version="1.0" standalone="no"?><!DOCTYPE svg PUBLIC "-//W3C//DTD SVG 1.1//EN" "http://www.w3.org/Graphics/SVG/1.1/DTD/svg11.dtd">
<svg class="icon" width="140px" height="123.59px" viewBox="0 0 1160 1024" version="1.1"
  xmlns="http://www.w3.org/2000/svg">
  <path d="M819.2 0a307.2 307.2 0 0 1 307.2 307.2 307.2 307.2 0 0 1-307.2 307.2 307.2 307.2 0 0 1-307.2-307.2 307.2 307.2 0 0 1 307.2-307.2z" fill="#FFA800" />
  <path d="M819.2 68.266667a238.933333 238.933333 0 1 1 0 477.866666 238.933333 238.933333 0 0 1 0-477.866666z" fill="#FF960E" />
  <path d="M1160.533333 819.2a204.8 204.8 0 0 1-204.8 204.8H238.933333a238.933333 238.933333 0 0 1-238.933333-238.933333c0-120.900267 89.873067-220.5696 206.4384-236.475734A307.2 307.2 0 0 1 512 273.066667c132.9152 0 245.76 84.548267 288.5632 202.683733A135.3728 135.3728 0 0 1 887.466667 443.733333a136.533333 136.533333 0 0 1 136.533333 136.533334c0 15.5648-3.140267 30.276267-7.953067 44.202666C1099.502933 650.3424 1160.533333 727.2448 1160.533333 819.2z" fill="#194EFF" />
</svg>