<?xml version="1.0" encoding="utf-8"?>
<svg class="icon" width="140px" height="123.59px" viewBox="78.776 26.795 988.55 931.081" version="1.1" xmlns="http://www.w3.org/2000/svg">
  <path d="M 474.744 27.327 C 692.628 27.327 869.257 203.957 869.257 421.84 C 869.257 639.724 692.628 816.353 474.744 816.353 C 256.862 816.353 80.231 639.724 80.231 421.84 C 80.231 203.957 256.862 27.327 474.744 27.327 Z" fill="#FFA800" style=""/>
  <path d="M 474.744 114.996 C 710.953 114.996 858.583 370.7 740.479 575.261 C 685.666 670.2 584.369 728.683 474.744 728.683 C 238.537 728.683 90.907 472.981 209.011 268.418 C 263.822 173.481 365.121 114.996 474.744 114.996 Z" fill="#FF960E" style=""/>
  <path d="M 1065.294 817.69 C 1065.294 893.93 1003.489 955.734 927.25 955.734 L 444.095 955.734 C 355.149 955.734 283.043 883.629 283.043 794.682 C 283.043 713.191 343.621 646.009 422.193 635.287 C 433.132 529.76 522.062 449.572 628.154 449.572 C 717.745 449.572 793.807 506.561 822.658 586.19 C 839.04 572.333 859.78 564.692 881.235 564.609 C 932.062 564.609 973.265 605.812 973.265 656.639 C 973.265 667.129 971.149 677.046 967.904 686.433 C 1024.158 703.872 1065.294 755.707 1065.294 817.69 Z" fill="#194EFF" style=""/>
</svg>