<?xml version="1.0" encoding="utf-8"?>
<svg class="icon" width="140px" height="123.59px" viewBox="78.776 26.795 988.55 931.081" version="1.1" xmlns="http://www.w3.org/2000/svg">
  <path d="M 474.744 27.327 C 692.628 27.327 869.257 203.957 869.257 421.84 C 869.257 639.724 692.628 816.353 474.744 816.353 C 256.862 816.353 80.231 639.724 80.231 421.84 C 80.231 203.957 256.862 27.327 474.744 27.327 Z" fill="#FFA800" style=""/>
  <path d="M 474.744 114.996 C 710.953 114.996 858.583 370.7 740.479 575.261 C 685.666 670.2 584.369 728.683 474.744 728.683 C 238.537 728.683 90.907 472.981 209.011 268.418 C 263.822 173.481 365.121 114.996 474.744 114.996 Z" fill="#FF960E" style=""/>
  <path d="M 911.426 622.252 C 898.776 622.564 886.199 624.27 873.922 627.337 C 825.729 578.352 760.209 550.272 691.499 549.157 C 618.579 549.735 549.306 581.137 500.814 635.603 C 488.691 633.041 476.335 631.762 463.948 631.787 C 402.767 630.991 345.074 660.195 309.49 709.97 C 300.511 706.555 291.098 704.417 281.525 703.612 C 199.322 703.233 147.535 791.983 188.308 863.359 C 218.491 916.198 286.661 933.172 338.094 900.655 C 373.554 930.686 418.762 946.731 465.217 945.784 C 498.786 945.724 531.799 937.199 561.198 920.996 C 648.663 971.813 757.752 966.842 840.236 908.283 C 862.134 920.718 886.875 927.288 912.061 927.351 C 995.922 927.357 1064.2 859.929 1065.245 776.074 C 1061.989 692.506 994.991 625.508 911.426 622.252 Z M 911.426 865.697 C 896.698 865.491 882.264 861.556 869.475 854.253 C 860.293 849.298 850.034 846.679 839.598 846.629 C 826.137 846.578 813.004 850.808 802.097 858.704 C 770.013 882.14 731.233 894.622 691.499 894.3 C 656.904 894.711 622.846 885.703 592.979 868.239 C 583.169 862.418 571.972 859.342 560.563 859.339 C 549.834 859.304 539.297 862.159 530.052 867.601 C 510.514 878.173 488.704 883.842 466.49 884.13 C 435.455 884.581 405.269 873.994 381.318 854.253 C 369.802 844.408 355.15 838.998 340.001 839.001 C 327.923 839.001 301.866 854.891 283.433 854.891 C 250.404 850.864 234.122 812.593 254.122 786.004 C 261.187 776.614 271.768 770.502 283.433 769.081 C 286.61 769.081 308.855 772.897 314.576 772.897 C 334.97 774.018 354.218 763.408 364.155 745.563 C 388.431 713.611 426.365 694.998 466.49 695.349 C 474.753 695.349 497.636 699.799 505.264 699.799 C 522.724 698.905 539.051 690.861 550.393 677.551 C 587.227 637.874 638.642 614.924 692.772 613.989 C 744.568 614.69 793.961 635.956 830.066 673.104 C 842.109 685.39 858.622 692.273 875.83 692.171 C 882.188 692.171 905.068 687.086 911.426 687.086 C 959.132 690.889 997.202 728.425 1001.684 776.074 C 1001.333 825.672 961.024 865.697 911.426 865.697 Z" style="fill: rgb(120, 150, 199);"/>
  <ellipse style="fill: rgb(120, 150, 199);" cx="625.833" cy="795.285" rx="407.034" ry="121.633"/>
  <ellipse style="fill: rgb(120, 150, 199);" cx="756.019" cy="708.178" rx="254.306" ry="88.124"/>
  <ellipse style="fill: rgb(120, 150, 199);" cx="670.834" cy="628.601" rx="98.099" ry="22.462"/>
</svg>