<?xml version="1.0" encoding="utf-8"?>
<svg class="icon" width="140px" height="136.79px" viewBox="0 0 1048 1024" version="1.1" xmlns="http://www.w3.org/2000/svg">
  <path d="M510.930999 999.664941C251.17295 999.664941 39.33857 796.827275 23.756028 540.979562a389.034352 389.034352 0 0 0 161.382222 35.163625c215.921122 0 390.97482-175.053698 390.97482-390.97482 0-57.596606-12.789446-112.135506-35.163625-161.382222C796.797157 39.368688 999.634824 251.203068 999.634824 510.961117 999.634824 780.862519 780.832401 999.664941 510.930999 999.664941z" fill="#FFBA35"/>
  <path d="M510.930999 901.935937c-162.558263 0-301.889717-99.287259-360.83877-240.500378a423.374749 423.374749 0 0 0 100.19869 12.436633c233.914549 0 423.551155-189.636606 423.551155-423.521754 0-34.605006-4.615961-68.063371-12.436633-100.228092 141.213119 58.949054 240.500378 198.280507 240.500378 360.838771 0 215.921122-175.053698 390.97482-390.97482 390.97482z" fill="#FF9000"/>
  <path d="M367.512803 205.837287H323.411266v73.502561a14.700512 14.700512 0 0 1-29.401024 0V205.837287H249.908706a14.700512 14.700512 0 0 1 0-29.401024H294.010242V132.334727a14.700512 14.700512 0 0 1 29.401024 0V176.436263h44.101537a14.700512 14.700512 0 0 1 0 29.401024zM220.507682 352.842408H205.80717v44.101537a14.700512 14.700512 0 0 1-29.401025 0V352.842408h-14.700512a14.700512 14.700512 0 0 1 0-29.401024H176.406145v-14.700512a14.700512 14.700512 0 0 1 29.401025 0v14.700512h14.700512a14.700512 14.700512 0 0 1 0 29.401024z" fill="#FFBA35"/>
</svg>