<?xml version="1.0" standalone="no"?><!DOCTYPE svg PUBLIC "-//W3C//DTD SVG 1.1//EN" "http://www.w3.org/Graphics/SVG/1.1/DTD/svg11.dtd">
<svg class="icon" width="140px" height="128.34px" viewBox="0 0 1117 1024" version="1.1"
  xmlns="http://www.w3.org/2000/svg">
  <path d="M711.149664 92.735471c0 170.726002 138.392235 309.118237 309.118237 309.118237 30.911824 0 60.67991-4.667685 88.840581-13.106613C1085.430025 553.383468 944.193903 680.060121 772.973311 680.060121c-187.789329 0-340.030061-152.240732-340.03006-340.03006C432.943251 168.809469 559.619904 27.573347 724.256277 3.89489A308.809119 308.809119 0 0 0 711.149664 92.735471z" fill="#FFBA35" />
  <path d="M649.326017 154.559118c0 170.726002 138.392235 309.118237 309.118236 309.118237 23.06022 0 45.471293-2.72024 67.10957-7.511573C981.504474 551.745141 885.121408 618.236474 772.973311 618.236474a278.206413 278.206413 0 0 1-278.206413-278.206413c0-112.148096 66.491333-208.531163 162.070692-252.580512C652.046257 109.087826 649.326017 131.498898 649.326017 154.559118z" fill="#FF960E" />
  <path d="M1051.179725 834.61924a185.470942 185.470942 0 0 1-185.470943 185.470942H216.560485a216.382766 216.382766 0 0 1-216.382766-216.382766c0-109.48968 81.390832-199.752205 186.95471-214.157115A278.206413 278.206413 0 0 1 463.855074 340.030061c120.370641 0 222.565131 76.568587 261.328558 183.554409A122.596293 122.596293 0 0 1 803.885135 494.589179a123.647295 123.647295 0 0 1 123.647295 123.647295c0 14.095792-2.8748 27.418788-7.202455 40.030812C995.909384 681.698448 1051.179725 751.342787 1051.179725 834.61924z" fill="#244DA2" />
</svg>