<?xml version="1.0" encoding="utf-8"?>
<svg width="16" height="16" fill="currentColor" class="qi-151-fill" viewBox="0 0 14.639 15.205" xmlns="http://www.w3.org/2000/svg">
  <path d="M510.930999 901.935937c-162.558263 0-301.889717-99.287259-360.83877-240.500378a423.374749 423.374749 0 0 0 100.19869 12.436633c233.914549 0 423.551155-189.636606 423.551155-423.521754 0-34.605006-4.615961-68.063371-12.436633-100.228092 141.213119 58.949054 240.500378 198.280507 240.500378 360.838771 0 215.921122-175.053698 390.97482-390.97482 390.97482z" fill="#FF9000" transform="matrix(1, 0, 0, 1, -512.542577, -516.482055)"/>
  <path d="M 6.043 11.715 C 2.95 11.715 0.425 9.299 0.239 6.249 C 0.841 6.525 1.496 6.668 2.161 6.668 C 4.734 6.668 6.82 4.582 6.82 2.009 C 6.82 1.323 6.667 0.672 6.4 0.085 C 9.451 0.271 11.867 2.796 11.867 5.891 C 11.867 9.107 9.261 11.715 6.043 11.715 Z" fill="#FFBA35" style=""/>
  <path d="M 6.043 10.55 C 4.104 10.55 2.447 9.369 1.743 7.685 C 2.134 7.78 2.535 7.83 2.939 7.833 C 5.725 7.833 7.984 5.572 7.984 2.785 C 7.984 2.374 7.93 1.974 7.838 1.591 C 9.52 2.293 10.704 3.952 10.704 5.891 C 10.704 8.465 8.616 10.55 6.043 10.55 Z" fill="#FF9000" style=""/>
  <path d="M 4.335 2.253 L 3.809 2.253 L 3.809 3.132 C 3.809 3.266 3.664 3.35 3.546 3.282 C 3.492 3.251 3.457 3.193 3.457 3.132 L 3.457 2.253 L 2.932 2.253 C 2.799 2.253 2.714 2.11 2.782 1.991 C 2.814 1.938 2.869 1.904 2.932 1.904 L 3.457 1.904 L 3.457 1.378 C 3.457 1.245 3.606 1.161 3.721 1.226 C 3.776 1.257 3.809 1.317 3.809 1.378 L 3.809 1.904 L 4.335 1.904 C 4.47 1.904 4.555 2.05 4.487 2.167 C 4.453 2.221 4.398 2.253 4.335 2.253 Z M 2.581 4.008 L 2.406 4.008 L 2.406 4.534 C 2.406 4.668 2.261 4.752 2.145 4.684 C 2.091 4.651 2.055 4.594 2.055 4.534 L 2.055 4.008 L 1.882 4.008 C 1.747 4.008 1.664 3.861 1.731 3.744 C 1.762 3.69 1.819 3.658 1.882 3.658 L 2.055 3.658 L 2.055 3.483 C 2.055 3.348 2.204 3.264 2.32 3.33 C 2.375 3.361 2.406 3.418 2.406 3.483 L 2.406 3.658 L 2.581 3.658 C 2.716 3.658 2.802 3.803 2.733 3.919 C 2.703 3.974 2.644 4.008 2.581 4.008 Z" fill="#FFBA35" style=""/>
  <path d="M 14.487 13.223 C 14.487 14.274 13.635 15.126 12.583 15.126 L 5.921 15.126 C 4.695 15.126 3.701 14.132 3.701 12.906 C 3.701 11.782 4.537 10.855 5.619 10.707 C 5.77 9.252 6.995 8.147 8.46 8.147 C 9.695 8.147 10.744 8.933 11.142 10.03 C 11.367 9.839 11.652 9.734 11.951 9.734 C 12.65 9.734 13.218 10.302 13.218 11.001 C 13.218 11.147 13.188 11.283 13.144 11.413 C 13.918 11.653 14.487 12.368 14.487 13.223 Z" fill="#244DA2" style=""/>
</svg>