<?xml version="1.0" encoding="utf-8"?>
<svg width="16" height="16" fill="currentColor" class="qi-151-fill" viewBox="0 0 14.639 15.205" xmlns="http://www.w3.org/2000/svg">
  <path d="M510.930999 901.935937c-162.558263 0-301.889717-99.287259-360.83877-240.500378a423.374749 423.374749 0 0 0 100.19869 12.436633c233.914549 0 423.551155-189.636606 423.551155-423.521754 0-34.605006-4.615961-68.063371-12.436633-100.228092 141.213119 58.949054 240.500378 198.280507 240.500378 360.838771 0 215.921122-175.053698 390.97482-390.97482 390.97482z" fill="#FF9000" transform="matrix(1, 0, 0, 1, -512.542577, -516.482055)"/>
  <path d="M 6.043 11.715 C 2.95 11.715 0.425 9.299 0.239 6.249 C 0.841 6.525 1.496 6.668 2.161 6.668 C 4.734 6.668 6.82 4.582 6.82 2.009 C 6.82 1.323 6.667 0.672 6.4 0.085 C 9.451 0.271 11.867 2.796 11.867 5.891 C 11.867 9.107 9.261 11.715 6.043 11.715 Z" fill="#FFBA35" style=""/>
  <path d="M 6.043 10.55 C 4.104 10.55 2.447 9.369 1.743 7.685 C 2.134 7.78 2.535 7.83 2.939 7.833 C 5.725 7.833 7.984 5.572 7.984 2.785 C 7.984 2.374 7.93 1.974 7.838 1.591 C 9.52 2.293 10.704 3.952 10.704 5.891 C 10.704 8.465 8.616 10.55 6.043 10.55 Z" fill="#FF9000" style=""/>
  <path d="M 4.335 2.253 L 3.809 2.253 L 3.809 3.132 C 3.809 3.266 3.664 3.35 3.546 3.282 C 3.492 3.251 3.457 3.193 3.457 3.132 L 3.457 2.253 L 2.932 2.253 C 2.799 2.253 2.714 2.11 2.782 1.991 C 2.814 1.938 2.869 1.904 2.932 1.904 L 3.457 1.904 L 3.457 1.378 C 3.457 1.245 3.606 1.161 3.721 1.226 C 3.776 1.257 3.809 1.317 3.809 1.378 L 3.809 1.904 L 4.335 1.904 C 4.47 1.904 4.555 2.05 4.487 2.167 C 4.453 2.221 4.398 2.253 4.335 2.253 Z M 2.581 4.008 L 2.406 4.008 L 2.406 4.534 C 2.406 4.668 2.261 4.752 2.145 4.684 C 2.091 4.651 2.055 4.594 2.055 4.534 L 2.055 4.008 L 1.882 4.008 C 1.747 4.008 1.664 3.861 1.731 3.744 C 1.762 3.69 1.819 3.658 1.882 3.658 L 2.055 3.658 L 2.055 3.483 C 2.055 3.348 2.204 3.264 2.32 3.33 C 2.375 3.361 2.406 3.418 2.406 3.483 L 2.406 3.658 L 2.581 3.658 C 2.716 3.658 2.802 3.803 2.733 3.919 C 2.703 3.974 2.644 4.008 2.581 4.008 Z" fill="#FFBA35" style=""/>
  <path d="M 11.988 9.709 C 11.785 9.714 11.583 9.743 11.384 9.791 C 10.609 9.003 9.554 8.55 8.447 8.533 C 7.271 8.541 6.155 9.048 5.374 9.925 C 5.18 9.884 4.981 9.863 4.78 9.863 C 3.794 9.85 2.866 10.321 2.293 11.123 C 2.148 11.068 1.998 11.033 1.842 11.02 C 0.517 11.015 -0.317 12.443 0.341 13.593 C 0.828 14.445 1.925 14.717 2.753 14.193 C 3.325 14.678 4.052 14.937 4.801 14.921 C 5.343 14.92 5.873 14.784 6.347 14.522 C 7.757 15.34 9.513 15.26 10.842 14.316 C 11.196 14.517 11.593 14.623 12 14.623 C 13.35 14.623 14.45 13.538 14.467 12.187 C 14.415 10.841 13.335 9.763 11.988 9.709 Z M 11.988 13.632 C 11.752 13.627 11.519 13.564 11.313 13.448 C 11.165 13.366 11 13.325 10.832 13.323 C 10.615 13.323 10.403 13.391 10.229 13.519 C 9.712 13.895 9.087 14.097 8.447 14.091 C 7.89 14.098 7.34 13.952 6.86 13.672 C 6.702 13.578 6.52 13.528 6.338 13.528 C 6.165 13.527 5.994 13.574 5.846 13.662 C 5.53 13.832 5.18 13.923 4.822 13.929 C 4.322 13.934 3.835 13.765 3.45 13.448 C 3.265 13.288 3.029 13.2 2.784 13.2 C 2.59 13.2 2.169 13.457 1.873 13.457 C 1.339 13.391 1.079 12.776 1.4 12.348 C 1.516 12.195 1.685 12.098 1.873 12.076 C 1.924 12.076 2.282 12.136 2.376 12.136 C 2.702 12.156 3.014 11.984 3.173 11.696 C 3.565 11.18 4.175 10.882 4.822 10.886 C 4.955 10.886 5.323 10.959 5.446 10.959 C 5.729 10.945 5.991 10.814 6.174 10.6 C 6.767 9.962 7.595 9.591 8.466 9.577 C 9.301 9.588 10.097 9.93 10.679 10.529 C 10.873 10.726 11.138 10.837 11.416 10.836 C 11.519 10.836 11.887 10.753 11.988 10.753 C 12.758 10.815 13.371 11.419 13.443 12.187 C 13.437 12.986 12.788 13.632 11.988 13.632 Z" style="fill: rgb(120, 150, 199);"/>
  <ellipse style="fill: rgb(120, 150, 199);" cx="7.389" cy="12.496" rx="6.558" ry="1.958"/>
  <ellipse style="fill: rgb(120, 150, 199);" cx="9.485" cy="11.093" rx="4.096" ry="1.419"/>
  <ellipse style="fill: rgb(120, 150, 199);" cx="8.114" cy="9.813" rx="1.581" ry="0.361"/>
</svg>