<?xml version="1.0" encoding="utf-8"?>
<svg class="icon" width="140px" height="140.00px" viewBox="0 0 1024 1024" version="1.1" xmlns="http://www.w3.org/2000/svg">
  <path d="M346.83871 693.677419s115.612903 150.858323 115.612903 214.709678a115.612903 115.612903 0 1 1-231.225807 0C231.225806 844.535742 346.83871 693.677419 346.83871 693.677419zM710.193548 693.677419s115.612903 150.858323 115.612904 214.709678a115.612903 115.612903 0 1 1-231.225807 0c0-63.851355 115.612903-214.709677 115.612903-214.709678z" fill="#0F74FF"/>
  <path d="M 252.304 2.547 C 341.326 2.547 413.487 74.709 413.487 163.73 C 413.487 252.752 341.326 324.913 252.304 324.913 C 163.283 324.913 91.121 252.752 91.121 163.73 C 91.121 74.709 163.283 2.547 252.304 2.547 Z" fill="#FFA800" style=""/>
  <path d="M 252.304 58.961 C 310.169 58.961 357.073 105.865 357.073 163.73 C 357.073 221.595 310.169 268.499 252.304 268.499 C 194.439 268.499 147.535 221.595 147.535 163.73 C 147.535 105.865 194.439 58.961 252.304 58.961 Z" fill="#FF9000" style=""/>
  <path d="M 988.845 516.333 C 988.845 607.549 914.9 681.494 823.684 681.494 L 229.103 681.494 C 76.534 681.494 -18.822 516.333 57.463 384.204 C 92.866 322.882 158.295 285.107 229.103 285.107 C 229.863 285.107 230.59 285.239 231.349 285.239 C 247.601 154.861 358.59 53.881 493.361 53.881 C 606.365 53.881 702.489 124.934 740.277 224.658 C 751.046 221.355 762.277 219.042 774.135 219.042 C 837.987 219.042 889.748 270.804 889.748 334.655 C 889.748 344.664 888.097 354.177 885.685 363.46 C 948 388.649 988.806 449.12 988.845 516.333 Z" fill="#7896C7"/>
</svg>