<?xml version="1.0" encoding="utf-8"?>
<svg class="icon" width="140px" height="140.00px" viewBox="0 0 1024 1024" version="1.1" xmlns="http://www.w3.org/2000/svg">
  <path d="M181.677419 693.677419S297.290323 844.535742 297.290323 908.387097a115.612903 115.612903 0 1 1-231.225807 0C66.064516 844.535742 181.677419 693.677419 181.677419 693.677419zM512 693.677419s115.612903 150.858323 115.612903 214.709678a115.612903 115.612903 0 1 1-231.225806 0c0-63.851355 115.612903-214.709677 115.612903-214.709678zM842.322581 693.677419s115.612903 150.858323 115.612903 214.709678a115.612903 115.612903 0 1 1-231.225807 0c0-63.851355 115.612903-214.709677 115.612904-214.709678z" fill="#0F74FF"/>
  <path d="M 252.536 3.321 C 341.558 3.321 413.719 75.483 413.719 164.504 C 413.719 253.526 341.558 325.687 252.536 325.687 C 163.515 325.687 91.353 253.526 91.353 164.504 C 91.353 75.483 163.515 3.321 252.536 3.321 Z" fill="#FFA800" style=""/>
  <path d="M 252.536 59.735 C 310.401 59.735 357.305 106.639 357.305 164.504 C 357.305 222.369 310.401 269.273 252.536 269.273 C 194.671 269.273 147.767 222.369 147.767 164.504 C 147.767 106.639 194.671 59.735 252.536 59.735 Z" fill="#FF9000" style=""/>
  <path d="M 989.077 517.107 C 989.077 608.323 915.132 682.268 823.916 682.268 L 229.335 682.268 C 76.766 682.268 -18.59 517.107 57.695 384.978 C 93.098 323.656 158.527 285.881 229.335 285.881 C 230.095 285.881 230.822 286.013 231.581 286.013 C 247.833 155.635 358.822 54.655 493.593 54.655 C 606.597 54.655 702.721 125.708 740.509 225.432 C 751.278 222.129 762.509 219.816 774.367 219.816 C 838.219 219.816 889.98 271.578 889.98 335.429 C 889.98 345.438 888.329 354.951 885.917 364.234 C 948.232 389.423 989.038 449.894 989.077 517.107 Z" fill="#7896C7"/>
</svg>