<?xml version="1.0" encoding="utf-8"?>
<svg class="icon" width="140px" height="140.00px" viewBox="0 0 1024 1024" version="1.1" xmlns="http://www.w3.org/2000/svg">
  <path d="M961.939394 434.424242a155.151515 155.151515 0 0 1-155.151515 155.151516H248.242424c-10.705455 0-21.162667-1.086061-31.278545-3.165091C129.117091 571.485091 62.060606 495.522909 62.060606 403.393939a186.181818 186.181818 0 0 1 186.181818-186.181818c0.713697 0 1.396364 0.124121 2.141091 0.124121C265.619394 94.859636 369.881212 0 496.484848 0c106.123636 0 196.452848 66.746182 231.951516 160.426667 10.115879-3.10303 20.666182-5.275152 31.80606-5.275152A108.606061 108.606061 0 0 1 868.848485 263.757576c0 9.402182-1.551515 18.338909-3.816727 27.058424A154.996364 154.996364 0 0 1 961.939394 434.424242z" fill="#7896C7"/>
  <path d="M651.108848 782.863515H545.512727l12.722425-162.536727-154.437819 240.60897h105.565091l-12.691394 162.536727 154.437818-240.60897z" fill="#FFB31F"/>
  <path d="M651.108848 782.863515H545.512727l12.722425-162.536727-154.437819 240.60897h105.565091l-12.691394 162.536727 154.437818-240.60897z" fill="#FFB31F"/>
  <path d="M 360.586 597.791 C 360.586 597.791 418.167 672.927 418.167 704.729 C 418.171 749.055 370.189 776.764 331.8 754.604 C 313.979 744.318 303.002 725.305 303.003 704.729 C 303.003 672.927 360.586 597.791 360.586 597.791 Z M 706.074 597.791 C 706.074 597.791 763.656 672.927 763.656 704.729 C 763.661 749.055 715.679 776.764 677.289 754.604 C 659.468 744.318 648.492 725.305 648.493 704.729 C 648.493 672.927 706.074 597.791 706.074 597.791 Z" fill="#0F74FF" style=""/>
  <path d="M 240.269 689.057 C 240.269 689.057 336.253 814.304 336.253 867.316 C 336.261 941.206 256.277 987.394 192.284 950.455 C 162.578 933.309 144.279 901.615 144.283 867.316 C 144.283 814.304 240.269 689.057 240.269 689.057 Z M 816.179 689.057 C 816.179 689.057 912.165 814.304 912.165 867.316 C 912.172 941.206 832.189 987.394 768.195 950.455 C 738.49 933.309 720.192 901.615 720.195 867.316 C 720.195 814.304 816.179 689.057 816.179 689.057 Z" fill="#0F74FF" style=""/>
</svg>