<?xml version="1.0" encoding="utf-8"?>
<svg class="icon" width="140px" height="140.00px" viewBox="0 0 1024 1024" version="1.1" xmlns="http://www.w3.org/2000/svg">
  <path d="M976 448a160 160 0 0 1-160 160H240c-11.04 0-21.824-1.12-32.256-3.264C117.152 589.344 48 511.008 48 416a192 192 0 0 1 192-192c0.736 0 1.44 0.128 2.176 0.128C257.92 97.824 365.44 0 496 0c109.472 0 202.592 68.832 239.2 165.44 10.432-3.2 21.312-5.44 32.8-5.44A112 112 0 0 1 880 272c0 9.696-1.6 18.912-3.936 27.904A159.84 159.84 0 0 1 976 448z" fill="#8B9EBA"/>
  <path d="M 87.452 678.526 L 58.094 744.143 C 57.015 746.555 57.319 749.361 58.888 751.486 L 101.468 808.471 C 103.093 810.572 105.74 811.649 108.388 811.296 L 179.513 803.617 C 182.23 803.338 184.582 801.608 185.656 799.098 L 214.996 733.463 C 216.095 731.054 215.79 728.238 214.202 726.119 L 171.534 668.251 C 169.719 666.513 167.16 665.786 164.702 666.31 L 93.577 673.989 C 90.859 674.267 88.509 676.007 87.452 678.526 Z M 309.688 678.932 C 307.566 680.53 306.468 683.147 306.811 685.781 L 311.842 732.527 C 312.132 735.235 313.89 737.562 316.414 738.582 L 359.983 757.383 C 362.436 758.442 365.279 758.142 367.432 756.571 L 406.005 728.926 C 408.24 727.383 409.452 724.741 409.165 722.041 L 404.116 675.295 C 403.898 672.647 402.273 670.321 399.861 669.205 L 356.575 650.386 C 354.132 649.318 351.306 649.62 349.143 651.181 L 309.688 678.932 Z" fill="#6387C4" style=""/>
  <path d="M 590.611 740.453 L 509.367 740.453 L 519.156 615.402 L 400.335 800.521 L 481.554 800.521 L 471.79 925.572 L 590.611 740.453 Z" fill="#FFB31F" style=""/>
  <path d="M 654.93 689.34 C 654.93 689.34 692.224 751.921 692.224 778.411 C 692.226 815.331 661.151 838.412 636.288 819.952 C 624.744 811.386 617.635 795.549 617.636 778.411 C 617.636 751.921 654.93 689.34 654.93 689.34 Z M 878.688 689.34 C 878.688 689.34 915.982 751.921 915.982 778.411 C 915.984 815.331 884.909 838.412 860.045 819.952 C 848.504 811.386 841.395 795.549 841.395 778.411 C 841.395 751.921 878.688 689.34 878.688 689.34 Z" fill="#0F74FF" style=""/>
</svg>