<?xml version="1.0" encoding="utf-8"?>
<svg width="16" height="16" fill="currentColor" class="qi-309-fill" viewBox="0 0 16 14.033" xmlns="http://www.w3.org/2000/svg">
  <path d="M 10.431 4.586 C 10.298 4.591 9.765 3.503 9.634 3.524 C 7.79 0.69 5.861 -0.388 4.017 2.446 C 3.886 2.425 6.136 5.383 6.003 5.378 C 3.552 5.38 -0.361 5.062 0.866 7.184 C 1.67 8.575 3.385 9.149 4.864 8.522 C 6.614 10.086 9.259 10.086 11.008 8.522 C 13.264 9.482 12.807 8.783 12.51 6.349 C 12.315 4.75 12.042 4.585 10.431 4.586 Z M 8.04 10.613 C 7.912 10.565 7.768 10.627 7.715 10.753 L 6.749 13.176 C 6.698 13.305 6.76 13.451 6.889 13.502 C 6.919 13.514 6.95 13.519 6.982 13.519 C 7.084 13.519 7.176 13.457 7.214 13.362 L 8.18 10.939 C 8.231 10.811 8.169 10.665 8.04 10.613 Z M 4.312 10.82 C 4.185 10.768 4.038 10.829 3.987 10.957 L 3.277 12.704 C 3.226 12.832 3.287 12.978 3.415 13.029 C 3.445 13.042 3.476 13.048 3.508 13.048 C 3.61 13.048 3.702 12.987 3.74 12.892 L 4.45 11.146 C 4.502 11.018 4.44 10.872 4.312 10.82 Z M 11.559 10.92 C 11.432 10.867 11.286 10.929 11.234 11.056 L 10.524 12.803 C 10.472 12.931 10.533 13.077 10.661 13.129 C 10.691 13.142 10.723 13.148 10.755 13.147 C 10.857 13.147 10.949 13.086 10.987 12.991 L 11.697 11.245 C 11.749 11.117 11.687 10.971 11.559 10.919 L 11.559 10.92 Z" style="fill: rgb(15, 116, 255);"/>
  <path d="M 15.553 7.516 C 15.553 8.956 14.385 10.121 12.947 10.121 L 3.566 10.121 C 1.159 10.121 -0.345 7.516 0.859 5.431 C 1.417 4.463 2.449 3.868 3.566 3.868 C 3.577 3.868 3.589 3.87 3.602 3.87 C 3.858 1.813 5.609 0.219 7.734 0.219 C 9.519 0.219 11.035 1.34 11.63 2.914 C 11.801 2.862 11.977 2.824 12.165 2.824 C 13.172 2.824 13.988 3.641 13.988 4.65 C 13.988 4.807 13.964 4.956 13.924 5.103 C 14.908 5.5 15.552 6.455 15.553 7.516 Z" fill="#7896C7" style=""/>
</svg>