<?xml version="1.0" encoding="utf-8"?>
<svg width="16" height="16" fill="currentColor" class="qi-310" viewBox="0 -0.951 16 16.951" xmlns="http://www.w3.org/2000/svg">
  <path d="M3.685 8.455a3.172 3.172 0 0 0 1.243-.253 4.61 4.61 0 0 0 6.144 0 3.185 3.185 0 1 0 1.243-6.116 3.146 3.146 0 0 0-.396.04 4.675 4.675 0 0 0-7.838 0 3.146 3.146 0 0 0-.397-.04 3.184 3.184 0 1 0 0 6.369zm0-5.37a1.236 1.236 0 0 1 .17.02l.101.013a1 1 0 0 0 .962-.444 3.675 3.675 0 0 1 6.164 0 1 1 0 0 0 .962.444l.102-.014a1.236 1.236 0 0 1 .17-.018 2.184 2.184 0 1 1-.853 4.196 1 1 0 0 0-1.05.167 3.61 3.61 0 0 1-4.827 0 1 1 0 0 0-1.049-.167 2.185 2.185 0 1 1-.852-4.196zM7 13.713a1 1 0 0 0 2 0 6.604 6.604 0 0 0-1-2 6.604 6.604 0 0 0-1 2zm-2.527-2.02a1 1 0 0 0 2 0 6.604 6.604 0 0 0-1-2 6.604 6.604 0 0 0-1 2zm5.011 0a1 1 0 0 0 2 0 6.604 6.604 0 0 0-1-2 6.604 6.604 0 0 0-1 2zm-6.732-.833a5.192 5.192 0 0 0-.786-1.573 5.192 5.192 0 0 0-.786 1.573.786.786 0 0 0 1.572 0zm-.347 2.746a.786.786 0 0 0 1.572 0 5.192 5.192 0 0 0-.786-1.573 5.192 5.192 0 0 0-.786 1.573zm10.835-2.738a.786.786 0 0 0 1.573 0 5.194 5.194 0 0 0-.786-1.573 5.194 5.194 0 0 0-.787 1.573zm-1.209 2.738a.786.786 0 0 0 1.573 0 5.192 5.192 0 0 0-.786-1.573 5.192 5.192 0 0 0-.787 1.573z" style="fill-rule: evenodd; fill: rgb(15, 116, 255);"/>
  <rect x="0.181" y="-0.638" width="15.344" height="7.163" style="fill: rgb(255, 255, 255);"/>
  <path d="M 15.389 6.81 C 15.389 8.25 14.221 9.415 12.783 9.415 L 3.402 9.415 C 0.995 9.415 -0.509 6.81 0.695 4.725 C 1.253 3.757 2.285 3.162 3.402 3.162 C 3.413 3.162 3.425 3.164 3.438 3.164 C 3.694 1.107 5.445 -0.487 7.57 -0.487 C 9.355 -0.487 10.871 0.634 11.466 2.208 C 11.637 2.156 11.813 2.118 12.001 2.118 C 13.008 2.118 13.824 2.935 13.824 3.944 C 13.824 4.101 13.8 4.25 13.76 4.397 C 14.744 4.794 15.388 5.749 15.389 6.81 Z" fill="#7896C7" style=""/>
</svg>