<?xml version="1.0" encoding="utf-8"?>
<svg width="16" height="16" fill="currentColor" class="qi-311" viewBox="0 0 16 16" xmlns="http://www.w3.org/2000/svg">
  <path d="M 12.273 3.078 C 12.14 3.083 12.007 3.097 11.876 3.118 C 10.032 0.284 5.882 0.284 4.038 3.118 C 3.907 3.097 3.775 3.083 3.642 3.078 C 1.191 3.079 -0.34 5.734 0.887 7.856 C 1.691 9.247 3.405 9.821 4.885 9.194 C 6.634 10.758 9.279 10.758 11.029 9.194 C 13.285 10.154 15.734 8.311 15.437 5.877 C 15.242 4.278 13.884 3.077 12.273 3.078 Z M 12.273 8.447 C 11.98 8.448 11.69 8.389 11.42 8.274 C 11.067 8.124 10.659 8.189 10.37 8.441 C 8.998 9.675 6.916 9.675 5.544 8.441 C 5.255 8.189 4.847 8.124 4.494 8.274 C 2.946 8.932 1.266 7.667 1.471 5.998 C 1.605 4.901 2.537 4.077 3.642 4.078 C 3.699 4.08 3.756 4.086 3.812 4.096 L 3.913 4.11 C 4.292 4.158 4.665 3.986 4.875 3.666 C 6.324 1.434 9.591 1.434 11.04 3.666 C 11.249 3.986 11.622 4.158 12.001 4.11 L 12.103 4.096 C 12.159 4.086 12.216 4.08 12.273 4.078 C 13.955 4.078 15.006 5.899 14.165 7.355 C 13.775 8.031 13.053 8.447 12.273 8.447 Z M 6.957 14.354 C 6.957 15.124 7.79 15.605 8.457 15.22 C 8.766 15.042 8.957 14.712 8.957 14.354 C 8.74 13.636 8.402 12.959 7.957 12.354 C 7.512 12.959 7.174 13.636 6.957 14.354 Z M 1.957 12.685 C 1.957 13.455 2.79 13.936 3.457 13.551 C 3.766 13.373 3.957 13.043 3.957 12.685 C 3.74 11.967 3.402 11.29 2.957 10.685 C 2.512 11.29 2.174 11.967 1.957 12.685 Z M 11.983 12.685 C 11.983 13.455 12.816 13.936 13.483 13.551 C 13.792 13.373 13.983 13.043 13.983 12.685 C 13.766 11.967 13.428 11.29 12.983 10.685 C 12.538 11.29 12.2 11.967 11.983 12.685 Z M 0.753 9.967 C 0.477 9.967 0.253 10.191 0.253 10.467 L 0.253 12.466 C 0.253 12.851 0.67 13.092 1.003 12.899 C 1.158 12.81 1.253 12.645 1.253 12.466 L 1.253 10.467 C 1.253 10.191 1.029 9.967 0.753 9.967 Z M 5.473 11.349 C 5.197 11.349 4.973 11.573 4.973 11.849 L 4.973 13.848 C 4.973 14.233 5.39 14.474 5.723 14.281 C 5.878 14.192 5.973 14.027 5.973 13.848 L 5.973 11.848 C 5.973 11.572 5.749 11.348 5.473 11.348 Z M 10.469 11.355 C 10.193 11.355 9.969 11.579 9.969 11.855 L 9.969 13.854 C 9.969 14.239 10.386 14.48 10.719 14.287 C 10.874 14.198 10.969 14.033 10.969 13.854 L 10.969 11.854 C 10.969 11.578 10.745 11.354 10.469 11.354 Z M 15.285 9.967 C 15.009 9.967 14.785 10.191 14.785 10.467 L 14.785 12.466 C 14.785 12.851 15.202 13.092 15.535 12.899 C 15.69 12.81 15.785 12.645 15.785 12.466 L 15.785 10.467 C 15.785 10.191 15.561 9.967 15.285 9.967 Z" style="fill: rgb(15, 116, 255);"/>
  <rect x="0.287" y="0.442" width="15.344" height="7.163" style="fill: rgb(255, 255, 255);"/>
  <path d="M 15.495 7.89 C 15.495 9.33 14.327 10.495 12.889 10.495 L 3.508 10.495 C 1.101 10.495 -0.403 7.89 0.801 5.805 C 1.359 4.837 2.391 4.242 3.508 4.242 C 3.519 4.242 3.531 4.244 3.544 4.244 C 3.8 2.187 5.551 0.593 7.676 0.593 C 9.461 0.593 10.977 1.714 11.572 3.288 C 11.743 3.236 11.919 3.198 12.107 3.198 C 13.114 3.198 13.93 4.015 13.93 5.024 C 13.93 5.181 13.906 5.33 13.866 5.477 C 14.85 5.874 15.494 6.829 15.495 7.89 Z" fill="#7896C7" style=""/>
</svg>