<?xml version="1.0" encoding="utf-8"?>
<svg width="16" height="16" fill="currentColor" class="qi-312" viewBox="0 0 16 16" xmlns="http://www.w3.org/2000/svg">
  <path d="M 10.66 5.522 C 10.527 5.527 9.13 5.532 8.999 5.553 C 7.155 2.719 5.858 0.353 4.014 3.187 C 3.883 3.166 6.733 5.679 6.6 5.674 C 4.149 5.676 -0.364 5.803 0.863 7.925 C 1.667 9.316 3.381 9.89 4.861 9.263 C 6.61 10.827 9.255 10.827 11.005 9.263 C 13.261 10.223 12.572 10.203 12.275 7.769 C 12.08 6.171 12.271 5.521 10.66 5.522 Z M 12.249 8.516 C 11.956 8.517 11.666 8.458 11.396 8.343 C 11.043 8.193 10.635 8.258 10.346 8.51 C 8.974 9.744 6.892 9.744 5.52 8.51 C 5.231 8.258 4.823 8.193 4.47 8.343 C 2.922 9.001 1.242 7.736 1.447 6.067 C 1.581 4.971 4.201 8.568 3.618 4.147 C 3.675 4.15 3.732 4.156 3.788 4.165 L 3.889 4.179 C 4.268 4.227 4.641 4.055 4.851 3.735 C 6.3 1.503 9.567 1.503 11.016 3.735 C 11.225 4.055 11.598 4.227 11.977 4.179 L 12.079 4.165 C 12.135 4.156 12.192 4.15 12.249 4.147 C 12.208 5.157 11.233 8.166 14.141 7.424 C 14.897 7.231 13.029 8.516 12.249 8.516 Z M 0.729 10.036 C 0.453 10.036 0.229 10.26 0.229 10.536 L 0.229 12.535 C 0.229 12.92 0.646 13.161 0.979 12.968 C 1.134 12.879 1.229 12.714 1.229 12.535 L 1.229 10.536 C 1.229 10.26 1.005 10.036 0.729 10.036 Z M 5.449 11.754 C 5.173 11.754 4.949 11.978 4.949 12.254 L 4.949 14.253 C 4.949 14.638 5.366 14.879 5.699 14.686 C 5.854 14.597 5.949 14.432 5.949 14.253 L 5.949 12.253 C 5.949 11.977 5.725 11.753 5.449 11.753 L 5.449 11.754 Z M 3.055 11.036 C 2.779 11.036 2.555 11.26 2.555 11.536 L 2.555 13.534 C 2.555 13.919 2.972 14.16 3.305 13.967 C 3.46 13.878 3.555 13.713 3.555 13.534 L 3.555 11.536 C 3.555 11.26 3.331 11.036 3.055 11.036 Z M 12.958 11.036 C 12.682 11.036 12.458 11.26 12.458 11.536 L 12.458 13.534 C 12.458 13.919 12.875 14.16 13.208 13.967 C 13.363 13.878 13.458 13.713 13.458 13.534 L 13.458 11.536 C 13.458 11.26 13.234 11.036 12.958 11.036 Z M 7.933 12.418 C 7.657 12.418 7.433 12.642 7.433 12.918 L 7.433 14.917 C 7.433 15.302 7.85 15.543 8.183 15.35 C 8.338 15.261 8.433 15.096 8.433 14.917 L 8.433 12.917 C 8.433 12.641 8.209 12.417 7.933 12.417 L 7.933 12.418 Z M 10.445 11.761 C 10.169 11.761 9.945 11.985 9.945 12.261 L 9.945 14.259 C 9.945 14.644 10.362 14.885 10.695 14.692 C 10.85 14.603 10.945 14.438 10.945 14.259 L 10.945 12.261 C 10.945 11.985 10.721 11.761 10.445 11.761 Z M 15.261 10.036 C 14.985 10.036 14.761 10.26 14.761 10.536 L 14.761 12.535 C 14.761 12.92 15.178 13.161 15.511 12.968 C 15.666 12.879 15.761 12.714 15.761 12.535 L 15.761 10.536 C 15.761 10.26 15.537 10.036 15.261 10.036 Z" style="fill: rgb(15, 116, 255);"/>
  <path d="M 15.355 8.133 C 15.355 9.573 14.187 10.738 12.749 10.738 L 3.368 10.738 C 0.961 10.738 -0.543 8.133 0.661 6.048 C 1.219 5.08 2.251 4.485 3.368 4.485 C 3.379 4.485 3.391 4.487 3.404 4.487 C 3.66 2.43 5.411 0.836 7.536 0.836 C 9.321 0.836 10.837 1.957 11.432 3.531 C 11.603 3.479 11.779 3.441 11.967 3.441 C 12.974 3.441 13.79 4.258 13.79 5.267 C 13.79 5.424 13.766 5.573 13.726 5.72 C 14.71 6.117 15.354 7.072 15.355 8.133 Z" fill="#7896C7" style=""/>
</svg>