<?xml version="1.0" encoding="utf-8"?>
<svg width="16" height="16" fill="currentColor" class="qi-313" viewBox="0 0 16 16" xmlns="http://www.w3.org/2000/svg">
  <path d="M 15.603 6.169 C 15.603 4.41 14.177 2.985 12.418 2.985 C 12.285 2.99 12.153 3.003 12.022 3.025 C 10.178 0.19 6.028 0.19 4.184 3.025 C 4.053 3.003 3.921 2.99 3.788 2.985 C 1.337 2.986 -0.194 5.64 1.033 7.762 C 1.837 9.153 3.552 9.728 5.031 9.101 C 6.781 10.665 9.426 10.665 11.175 9.101 C 13.275 9.991 15.603 8.45 15.603 6.169 Z M 12.418 8.354 C 12.125 8.354 11.836 8.296 11.566 8.181 C 11.213 8.031 10.805 8.096 10.516 8.348 C 9.144 9.582 7.062 9.582 5.689 8.348 C 5.4 8.096 4.993 8.031 4.64 8.181 C 3.092 8.839 1.412 7.574 1.617 5.905 C 1.751 4.808 2.683 3.984 3.788 3.985 C 3.845 3.987 3.902 3.993 3.958 4.003 L 4.059 4.017 C 4.438 4.065 4.812 3.893 5.021 3.573 C 6.47 1.342 9.736 1.342 11.185 3.573 C 11.395 3.893 11.768 4.065 12.147 4.017 L 12.249 4.003 C 12.305 3.993 12.362 3.987 12.419 3.985 C 14.101 3.985 15.152 5.805 14.311 7.262 C 13.921 7.938 13.2 8.354 12.419 8.354 Z M 1.251 10.994 L 2.229 12.391 L 3.206 10.994 L 2.229 9.598 L 1.251 10.994 Z M 4.189 12.45 L 5.166 13.847 L 6.144 12.45 L 5.166 11.054 L 4.189 12.45 Z M 7.125 14.239 L 8.103 15.635 L 9.08 14.239 L 8.103 12.842 L 7.125 14.239 Z M 10.062 12.45 L 11.04 13.847 L 12.017 12.45 L 11.04 11.054 L 10.062 12.45 Z M 12.999 10.994 L 13.977 12.391 L 14.955 10.994 L 13.977 9.598 L 12.999 10.994 Z" style="fill: rgb(15, 116, 255);"/>
  <rect x="0.364" y="-0.351" width="15.344" height="7.163" style="fill: rgb(255, 255, 255);"/>
  <rect x="5.705" y="9.427" width="4.756" height="1.135" style="fill: rgb(255, 255, 255);"/>
  <path d="M 15.593 7.083 C 15.593 8.523 14.425 9.688 12.987 9.688 L 3.606 9.688 C 1.199 9.688 -0.305 7.083 0.899 4.998 C 1.457 4.03 2.489 3.435 3.606 3.435 C 3.617 3.435 3.629 3.437 3.642 3.437 C 3.898 1.38 5.649 -0.214 7.774 -0.214 C 9.559 -0.214 11.075 0.907 11.67 2.481 C 11.841 2.429 12.017 2.391 12.205 2.391 C 13.212 2.391 14.028 3.208 14.028 4.217 C 14.028 4.374 14.004 4.523 13.964 4.67 C 14.948 5.067 15.592 6.022 15.593 7.083 Z" fill="#7896C7" style=""/>
</svg>