<?xml version="1.0" encoding="utf-8"?>
<svg width="16" height="16" fill="currentColor" class="qi-314" viewBox="0 0 16 16" xmlns="http://www.w3.org/2000/svg">
  <path d="M 10.516 13.29 C 10.516 14.059 11.35 14.54 12.016 14.156 C 12.326 13.977 12.516 13.647 12.516 13.29 C 12.299 12.571 11.961 11.895 11.516 11.29 C 11.072 11.895 10.734 12.571 10.516 13.29 Z M 12.396 2.933 C 12.264 2.938 12.131 2.951 12 2.973 C 10.157 0.138 6.006 0.138 4.162 2.973 C 4.031 2.951 3.899 2.938 3.766 2.933 C 1.315 2.934 -0.215 5.588 1.011 7.71 C 1.815 9.101 3.53 9.675 5.009 9.049 C 6.759 10.612 9.404 10.612 11.153 9.049 C 13.41 10.008 15.858 8.165 15.561 5.731 C 15.366 4.132 14.007 2.931 12.396 2.933 Z M 12.396 8.302 C 12.104 8.302 11.814 8.243 11.544 8.129 C 11.191 7.978 10.783 8.043 10.494 8.296 C 9.122 9.529 7.04 9.529 5.667 8.296 C 5.379 8.043 4.971 7.979 4.618 8.129 C 3.07 8.786 1.391 7.522 1.595 5.852 C 1.729 4.755 2.661 3.931 3.766 3.933 C 3.823 3.935 3.88 3.941 3.936 3.951 L 4.037 3.965 C 4.417 4.013 4.79 3.84 4.999 3.521 C 6.448 1.29 9.714 1.29 11.163 3.521 C 11.373 3.84 11.746 4.013 12.125 3.965 L 12.227 3.951 C 12.284 3.941 12.34 3.935 12.397 3.933 C 14.079 3.933 15.13 5.753 14.289 7.209 C 13.899 7.885 13.178 8.302 12.397 8.302 Z M 3.479 13.183 C 3.479 13.788 4.135 14.166 4.659 13.864 C 4.902 13.723 5.052 13.464 5.052 13.183 C 4.882 12.618 4.616 12.086 4.266 11.611 C 3.917 12.086 3.65 12.618 3.479 13.183 Z M 8.522 10.997 C 8.259 10.916 7.979 11.063 7.896 11.326 L 6.811 14.805 C 6.697 15.172 7.024 15.526 7.399 15.441 C 7.573 15.401 7.713 15.272 7.766 15.102 L 8.851 11.624 C 8.934 11.36 8.787 11.079 8.522 10.997 Z" style="fill: rgb(15, 116, 255);"/>
  <rect x="0.339" y="0.413" width="15.344" height="7.163" style="fill: rgb(255, 255, 255);"/>
  <path d="M 15.547 7.861 C 15.547 9.301 14.379 10.466 12.941 10.466 L 3.56 10.466 C 1.153 10.466 -0.351 7.861 0.853 5.776 C 1.411 4.808 2.443 4.213 3.56 4.213 C 3.571 4.213 3.583 4.215 3.596 4.215 C 3.852 2.158 5.603 0.564 7.728 0.564 C 9.513 0.564 11.029 1.685 11.624 3.259 C 11.795 3.207 11.971 3.169 12.159 3.169 C 13.166 3.169 13.982 3.986 13.982 4.995 C 13.982 5.152 13.958 5.301 13.918 5.448 C 14.902 5.845 15.546 6.8 15.547 7.861 Z" fill="#7896C7" style=""/>
</svg>