<?xml version="1.0" encoding="utf-8"?>
<svg width="16" height="16" fill="currentColor" class="qi-315" viewBox="0 0 16 16" xmlns="http://www.w3.org/2000/svg">
  <path d="M 9.471 13.265 C 9.471 14.034 10.304 14.516 10.971 14.131 C 11.28 13.952 11.471 13.622 11.471 13.265 C 11.254 12.546 10.915 11.87 10.471 11.265 C 10.026 11.87 9.688 12.546 9.471 13.265 Z M 12.351 2.908 C 12.218 2.913 12.086 2.926 11.955 2.948 C 10.111 0.113 5.961 0.113 4.117 2.948 C 3.986 2.926 3.854 2.913 3.721 2.908 C 1.27 2.909 -0.261 5.563 0.966 7.685 C 1.77 9.076 3.484 9.65 4.964 9.024 C 6.713 10.587 9.358 10.587 11.108 9.024 C 13.364 9.983 15.813 8.14 15.516 5.707 C 15.32 4.107 13.962 2.906 12.351 2.908 Z M 12.351 8.277 C 12.058 8.277 11.768 8.218 11.499 8.104 C 11.146 7.953 10.738 8.018 10.449 8.271 C 9.076 9.505 6.994 9.505 5.622 8.271 C 5.333 8.019 4.926 7.954 4.573 8.104 C 3.025 8.761 1.345 7.497 1.55 5.827 C 1.684 4.73 2.616 3.906 3.721 3.908 C 3.778 3.91 3.835 3.916 3.891 3.926 L 3.992 3.94 C 4.371 3.988 4.744 3.815 4.954 3.496 C 6.403 1.265 9.669 1.265 11.118 3.496 C 11.327 3.815 11.701 3.988 12.08 3.94 L 12.182 3.926 C 12.238 3.916 12.295 3.91 12.352 3.908 C 14.033 3.908 15.084 5.728 14.244 7.184 C 13.853 7.86 13.132 8.277 12.352 8.277 Z M 2.434 13.158 C 2.434 13.763 3.089 14.142 3.614 13.839 C 3.857 13.698 4.007 13.439 4.007 13.158 C 3.836 12.593 3.57 12.061 3.221 11.586 C 2.871 12.061 2.605 12.593 2.434 13.158 Z M 12.067 11.979 C 12.067 12.584 12.722 12.963 13.247 12.66 C 13.49 12.519 13.64 12.26 13.64 11.979 C 13.469 11.413 13.203 10.882 12.854 10.406 C 12.504 10.881 12.238 11.413 12.067 11.979 Z M 7.477 10.972 C 7.213 10.891 6.934 11.038 6.851 11.301 L 5.766 14.78 C 5.651 15.147 5.978 15.501 6.353 15.416 C 6.528 15.377 6.668 15.247 6.721 15.077 L 7.806 11.599 C 7.888 11.335 7.741 11.054 7.477 10.972 Z" style="fill: rgb(15, 116, 255);"/>
  <rect x="0.305" y="0.237" width="15.344" height="7.163" style="fill: rgb(255, 255, 255);"/>
  <path d="M 15.513 7.685 C 15.513 9.125 14.345 10.29 12.907 10.29 L 3.526 10.29 C 1.119 10.29 -0.385 7.685 0.819 5.6 C 1.377 4.632 2.409 4.037 3.526 4.037 C 3.537 4.037 3.549 4.039 3.562 4.039 C 3.818 1.982 5.569 0.388 7.694 0.388 C 9.479 0.388 10.995 1.509 11.59 3.083 C 11.761 3.031 11.937 2.993 12.125 2.993 C 13.132 2.993 13.948 3.81 13.948 4.819 C 13.948 4.976 13.924 5.125 13.884 5.272 C 14.868 5.669 15.512 6.624 15.513 7.685 Z" fill="#7896C7" style=""/>
</svg>