<?xml version="1.0" encoding="utf-8"?>
<svg width="16" height="16" fill="currentColor" class="qi-316" viewBox="0 0 16 16" xmlns="http://www.w3.org/2000/svg">
  <path d="M 10.036 13.129 C 10.036 13.898 10.87 14.38 11.536 13.995 C 11.846 13.816 12.036 13.486 12.036 13.129 C 11.819 12.41 11.481 11.734 11.036 11.129 C 10.592 11.734 10.253 12.41 10.036 13.129 Z M 12.782 11.95 C 12.782 12.719 13.616 13.201 14.282 12.816 C 14.592 12.637 14.782 12.307 14.782 11.95 C 14.565 11.231 14.227 10.555 13.782 9.95 C 13.338 10.555 12.999 11.231 12.782 11.95 Z M 15.514 5.956 C 15.514 4.197 14.088 2.771 12.329 2.772 C 12.196 2.777 12.064 2.79 11.933 2.812 C 10.089 -0.023 5.939 -0.023 4.095 2.812 C 3.964 2.79 3.832 2.777 3.699 2.772 C 1.248 2.773 -0.282 5.427 0.944 7.549 C 1.748 8.94 3.463 9.514 4.942 8.888 C 6.692 10.451 9.337 10.451 11.086 8.888 C 13.186 9.778 15.514 8.237 15.514 5.956 Z M 12.329 8.141 C 12.036 8.141 11.747 8.082 11.477 7.968 C 11.124 7.817 10.716 7.882 10.427 8.135 C 9.055 9.369 6.973 9.369 5.6 8.135 C 5.311 7.883 4.904 7.818 4.551 7.968 C 3.003 8.625 1.324 7.361 1.528 5.691 C 1.662 4.594 2.594 3.77 3.699 3.772 C 3.756 3.774 3.813 3.78 3.869 3.79 L 3.97 3.804 C 4.349 3.852 4.723 3.679 4.932 3.36 C 6.381 1.129 9.647 1.129 11.096 3.36 C 11.306 3.679 11.679 3.852 12.058 3.804 L 12.16 3.79 C 12.216 3.78 12.273 3.774 12.33 3.772 C 14.012 3.772 15.063 5.592 14.222 7.048 C 13.832 7.724 13.111 8.141 12.33 8.141 Z M 3.923 13.022 C 3.923 13.627 4.579 14.006 5.103 13.703 C 5.346 13.562 5.496 13.303 5.496 13.022 C 5.325 12.457 5.059 11.925 4.709 11.45 C 4.36 11.925 4.094 12.457 3.923 13.022 Z M 1.597 11.843 C 1.597 12.448 2.252 12.826 2.776 12.523 C 3.019 12.383 3.169 12.123 3.169 11.843 C 2.998 11.277 2.733 10.746 2.383 10.27 C 2.034 10.746 1.768 11.277 1.597 11.843 Z M 8.041 10.836 C 7.778 10.755 7.499 10.902 7.415 11.165 L 6.33 14.644 C 6.216 15.011 6.542 15.365 6.918 15.28 C 7.092 15.241 7.232 15.111 7.285 14.941 L 8.37 11.463 C 8.453 11.199 8.305 10.918 8.041 10.836 Z" style="fill: rgb(15, 116, 255);"/>
  <rect x="0.227" y="0.065" width="15.344" height="7.163" style="fill: rgb(255, 255, 255);"/>
  <path d="M 15.435 7.513 C 15.435 8.953 14.267 10.118 12.829 10.118 L 3.448 10.118 C 1.041 10.118 -0.463 7.513 0.741 5.428 C 1.299 4.46 2.331 3.865 3.448 3.865 C 3.459 3.865 3.471 3.867 3.484 3.867 C 3.74 1.81 5.491 0.216 7.616 0.216 C 9.401 0.216 10.917 1.337 11.512 2.911 C 11.683 2.859 11.859 2.821 12.047 2.821 C 13.054 2.821 13.87 3.638 13.87 4.647 C 13.87 4.804 13.846 4.953 13.806 5.1 C 14.79 5.497 15.434 6.452 15.435 7.513 Z" fill="#7896C7" style=""/>
</svg>