<?xml version="1.0" encoding="utf-8"?>
<svg width="16" height="16" fill="currentColor" class="qi-317" viewBox="0 0 16 16" xmlns="http://www.w3.org/2000/svg">
  <path d="M 12.82 12.029 C 12.82 12.799 13.653 13.28 14.32 12.895 C 14.629 12.717 14.82 12.387 14.82 12.029 C 14.603 11.311 14.265 10.634 13.82 10.029 C 13.375 10.634 13.037 11.311 12.82 12.029 Z M 15.552 6.035 C 15.552 4.277 14.126 2.851 12.367 2.851 C 12.234 2.856 12.102 2.87 11.971 2.891 C 10.127 0.057 5.977 0.057 4.133 2.891 C 4.002 2.87 3.87 2.856 3.737 2.851 C 1.286 2.853 -0.245 5.507 0.982 7.629 C 1.786 9.02 3.501 9.594 4.98 8.967 C 6.73 10.531 9.375 10.531 11.124 8.967 C 13.224 9.858 15.552 8.316 15.552 6.035 Z M 12.367 8.22 C 12.074 8.221 11.784 8.162 11.515 8.047 C 11.162 7.897 10.754 7.962 10.465 8.214 C 9.093 9.448 7.011 9.448 5.638 8.214 C 5.349 7.962 4.942 7.897 4.589 8.047 C 3.041 8.705 1.361 7.44 1.566 5.771 C 1.7 4.674 2.632 3.85 3.737 3.851 C 3.794 3.853 3.851 3.86 3.907 3.869 L 4.008 3.883 C 4.387 3.931 4.761 3.759 4.97 3.439 C 6.419 1.208 9.685 1.208 11.134 3.439 C 11.344 3.759 11.717 3.931 12.096 3.883 L 12.198 3.869 C 12.254 3.86 12.311 3.853 12.368 3.851 C 14.05 3.851 15.101 5.672 14.26 7.128 C 13.87 7.804 13.149 8.22 12.368 8.22 Z M 1.635 11.922 C 1.635 12.527 2.29 12.906 2.814 12.603 C 3.057 12.463 3.207 12.203 3.207 11.922 C 3.036 11.357 2.771 10.825 2.421 10.349 C 2.072 10.825 1.806 11.357 1.635 11.922 Z M 8.389 10.915 C 8.125 10.832 7.844 10.98 7.762 11.244 L 6.676 14.723 C 6.562 15.091 6.888 15.444 7.264 15.36 C 7.438 15.32 7.578 15.191 7.631 15.02 L 8.717 11.542 C 8.799 11.279 8.652 10.999 8.389 10.916 Z M 5.682 11.111 C 5.419 11.03 5.139 11.177 5.056 11.439 L 4.238 14.059 C 4.157 14.323 4.303 14.603 4.566 14.685 C 4.615 14.7 4.665 14.708 4.716 14.708 C 4.935 14.708 5.128 14.566 5.193 14.357 L 6.011 11.737 C 6.093 11.474 5.946 11.194 5.683 11.111 Z M 11.088 11.111 C 10.824 11.03 10.544 11.176 10.461 11.439 L 9.643 14.059 C 9.562 14.323 9.709 14.603 9.972 14.685 C 10.02 14.7 10.071 14.708 10.121 14.708 C 10.34 14.708 10.534 14.566 10.599 14.357 L 11.416 11.737 C 11.498 11.474 11.351 11.194 11.088 11.111 Z" style="fill: rgb(15, 116, 255);"/>
  <rect x="0.329" y="0.112" width="15.344" height="7.163" style="fill: rgb(255, 255, 255);"/>
  <path d="M 15.537 7.56 C 15.537 9 14.369 10.165 12.931 10.165 L 3.55 10.165 C 1.143 10.165 -0.361 7.56 0.843 5.475 C 1.401 4.507 2.433 3.912 3.55 3.912 C 3.561 3.912 3.573 3.914 3.586 3.914 C 3.842 1.857 5.593 0.263 7.718 0.263 C 9.503 0.263 11.019 1.384 11.614 2.958 C 11.785 2.906 11.961 2.868 12.149 2.868 C 13.156 2.868 13.972 3.685 13.972 4.694 C 13.972 4.851 13.948 5 13.908 5.147 C 14.892 5.544 15.536 6.499 15.537 7.56 Z" fill="#7896C7" style=""/>
</svg>