<?xml version="1.0" encoding="utf-8"?>
<svg width="16" height="16" fill="currentColor" class="qi-318" viewBox="0 0 16 16" xmlns="http://www.w3.org/2000/svg">
  <path d="M 12.842 12.154 C 12.842 12.924 13.675 13.405 14.342 13.02 C 14.651 12.841 14.842 12.511 14.842 12.154 C 14.625 11.435 14.286 10.759 13.842 10.154 C 13.397 10.759 13.059 11.435 12.842 12.154 Z M 15.574 6.16 C 15.574 4.401 14.148 2.975 12.389 2.976 C 12.256 2.981 12.124 2.994 11.993 3.016 C 10.149 0.181 5.998 0.181 4.155 3.016 C 4.024 2.994 3.891 2.981 3.759 2.976 C 1.308 2.977 -0.223 5.631 1.004 7.753 C 1.808 9.144 3.522 9.718 5.002 9.092 C 6.751 10.655 9.396 10.655 11.146 9.092 C 13.246 9.982 15.573 8.441 15.574 6.16 Z M 12.389 8.345 C 12.096 8.345 11.806 8.286 11.537 8.172 C 11.184 8.021 10.776 8.086 10.487 8.339 C 9.114 9.573 7.032 9.573 5.66 8.339 C 5.371 8.087 4.964 8.022 4.611 8.172 C 3.063 8.83 1.383 7.565 1.587 5.895 C 1.722 4.798 2.654 3.975 3.759 3.976 C 3.816 3.978 3.873 3.984 3.929 3.994 L 4.03 4.008 C 4.409 4.056 4.782 3.883 4.992 3.564 C 6.441 1.333 9.707 1.333 11.156 3.564 C 11.365 3.883 11.739 4.056 12.118 4.008 L 12.22 3.994 C 12.276 3.984 12.333 3.978 12.39 3.976 C 14.071 3.976 15.122 5.796 14.282 7.252 C 13.891 7.928 13.17 8.345 12.39 8.345 Z M 1.657 12.047 C 1.657 12.652 2.312 13.03 2.836 12.727 C 3.079 12.587 3.229 12.328 3.229 12.047 C 3.058 11.482 2.792 10.95 2.443 10.474 C 2.093 10.95 1.827 11.482 1.657 12.047 Z M 8.411 11.04 C 8.147 10.956 7.865 11.104 7.784 11.369 L 6.698 14.848 C 6.583 15.215 6.91 15.569 7.285 15.484 C 7.46 15.445 7.6 15.315 7.653 15.145 L 8.739 11.667 C 8.821 11.403 8.674 11.123 8.411 11.041 Z M 5.704 11.236 C 5.44 11.155 5.161 11.301 5.078 11.564 L 4.26 14.184 C 4.178 14.447 4.325 14.727 4.588 14.81 C 4.636 14.825 4.687 14.833 4.738 14.833 C 4.956 14.832 5.149 14.69 5.215 14.482 L 6.033 11.862 C 6.114 11.598 5.968 11.319 5.705 11.236 Z M 11.11 11.236 C 10.846 11.154 10.566 11.301 10.483 11.564 L 9.665 14.184 C 9.583 14.447 9.73 14.727 9.994 14.81 C 10.042 14.825 10.092 14.832 10.143 14.833 C 10.362 14.833 10.555 14.691 10.621 14.482 L 11.438 11.862 C 11.519 11.598 11.373 11.319 11.11 11.236 Z M 1.798 15.116 C 1.798 15.612 2.335 15.923 2.765 15.674 C 2.965 15.559 3.088 15.346 3.088 15.116 C 2.948 14.652 2.73 14.216 2.443 13.826 C 2.156 14.216 1.938 14.652 1.798 15.116 Z M 13.224 15.144 C 13.224 15.619 13.738 15.916 14.15 15.679 C 14.341 15.568 14.459 15.364 14.459 15.144 C 14.325 14.7 14.116 14.282 13.842 13.909 C 13.567 14.282 13.359 14.7 13.225 15.144 Z" style="fill-rule: evenodd; fill: rgb(15, 116, 255);"/>
  <rect x="0.326" y="0.245" width="15.344" height="7.163" style="fill: rgb(255, 255, 255);"/>
  <path d="M 15.534 7.693 C 15.534 9.133 14.366 10.298 12.928 10.298 L 3.547 10.298 C 1.14 10.298 -0.364 7.693 0.84 5.608 C 1.398 4.64 2.43 4.045 3.547 4.045 C 3.558 4.045 3.57 4.047 3.583 4.047 C 3.839 1.99 5.59 0.396 7.715 0.396 C 9.5 0.396 11.016 1.517 11.611 3.091 C 11.782 3.039 11.958 3.001 12.146 3.001 C 13.153 3.001 13.969 3.818 13.969 4.827 C 13.969 4.984 13.945 5.133 13.905 5.28 C 14.889 5.677 15.533 6.632 15.534 7.693 Z" fill="#7896C7" style=""/>
</svg>