<?xml version="1.0" encoding="utf-8"?>
<svg width="16" height="16" fill="currentColor" class="qi-318" viewBox="0 0 16 16" xmlns="http://www.w3.org/2000/svg">
  <path d="M 12.309 12.239 C 12.309 12.904 13.027 13.318 13.603 12.986 C 13.869 12.831 14.034 12.548 14.034 12.239 C 13.847 11.619 13.554 11.037 13.172 10.514 C 12.788 11.037 12.496 11.619 12.309 12.239 Z M 14.665 7.07 C 14.665 5.553 13.436 4.323 11.918 4.324 C 11.804 4.329 11.69 4.339 11.577 4.358 C 9.987 1.913 6.406 1.913 4.817 4.358 C 4.704 4.339 4.59 4.329 4.475 4.324 C 2.361 4.324 1.041 6.613 2.1 8.444 C 2.792 9.643 4.271 10.138 5.547 9.598 C 7.023 10.428 9.304 10.428 10.846 9.598 C 12.658 10.367 14.664 9.037 14.665 7.07 Z M 11.918 8.955 C 11.666 8.955 11.416 8.903 11.183 8.805 C 10.879 8.675 10.527 8.731 10.278 8.95 C 9.094 10.014 7.298 10.014 6.116 8.95 C 5.865 8.732 5.515 8.676 5.21 8.805 C 3.876 9.372 2.426 8.282 2.602 6.842 C 2.719 5.895 3.523 5.186 4.475 5.187 C 4.525 5.188 4.574 5.193 4.622 5.202 L 4.709 5.214 C 5.036 5.255 5.358 5.106 5.539 4.831 C 6.789 2.907 9.605 2.907 10.855 4.831 C 11.036 5.106 11.358 5.255 11.685 5.214 L 11.773 5.202 C 11.821 5.193 11.87 5.188 11.919 5.187 C 13.369 5.187 14.275 6.756 13.551 8.012 C 13.214 8.595 12.592 8.955 11.919 8.955 L 11.918 8.955 Z M 2.663 12.147 C 2.663 12.669 3.228 12.995 3.68 12.733 C 3.889 12.613 4.018 12.39 4.018 12.147 C 3.871 11.66 3.641 11.201 3.341 10.791 C 3.038 11.201 2.809 11.66 2.663 12.147 Z M 8.487 11.278 C 8.26 11.206 8.016 11.334 7.947 11.562 L 7.01 14.563 C 6.911 14.88 7.194 15.184 7.517 15.111 C 7.668 15.078 7.788 14.966 7.834 14.819 L 8.771 11.819 C 8.841 11.591 8.714 11.35 8.487 11.279 L 8.487 11.278 Z M 6.153 11.448 C 5.925 11.378 5.684 11.503 5.613 11.73 L 4.908 13.99 C 4.837 14.217 4.963 14.459 5.19 14.53 C 5.232 14.543 5.276 14.55 5.32 14.55 C 5.507 14.549 5.674 14.427 5.731 14.248 L 6.437 11.988 C 6.507 11.76 6.38 11.519 6.154 11.448 L 6.153 11.448 Z M 10.815 11.448 C 10.588 11.377 10.346 11.503 10.275 11.73 L 9.569 13.99 C 9.498 14.217 9.625 14.459 9.853 14.53 C 9.894 14.543 9.938 14.549 9.982 14.55 C 10.17 14.55 10.337 14.428 10.393 14.248 L 11.099 11.988 C 11.168 11.76 11.042 11.519 10.815 11.448 Z M 2.784 14.794 C 2.784 15.222 3.248 15.49 3.618 15.275 C 3.791 15.176 3.897 14.993 3.897 14.794 C 3.776 14.394 3.588 14.017 3.341 13.681 C 3.093 14.017 2.906 14.394 2.784 14.794 Z M 12.638 14.818 C 12.638 15.228 13.082 15.484 13.437 15.28 C 13.602 15.184 13.704 15.007 13.704 14.818 C 13.588 14.435 13.407 14.075 13.172 13.753 C 12.934 14.075 12.755 14.435 12.639 14.818 L 12.638 14.818 Z" style="fill-rule: evenodd; fill: rgb(15, 116, 255);"/>
  <path d="M 15.752 7.8 C 15.752 9.251 14.584 10.425 13.146 10.425 L 3.765 10.425 C 1.358 10.425 -0.146 7.8 1.058 5.698 C 1.616 4.723 2.648 4.123 3.765 4.123 C 3.776 4.123 3.788 4.125 3.801 4.125 C 4.057 2.052 5.808 0.445 7.933 0.445 C 9.718 0.445 11.234 1.575 11.829 3.161 C 12 3.109 12.176 3.071 12.364 3.071 C 13.371 3.071 14.187 3.894 14.187 4.911 C 14.187 5.069 14.163 5.219 14.123 5.368 C 15.107 5.768 15.751 6.73 15.752 7.8 Z" fill="#7896C7" style=""/>
</svg>