<?xml version="1.0" encoding="utf-8"?>
<svg class="icon" width="140px" height="140.00px" viewBox="0 0 1024 1024" version="1.1" xmlns="http://www.w3.org/2000/svg">
  <path d="M346.83871 693.677419s115.612903 150.858323 115.612903 214.709678a115.612903 115.612903 0 1 1-231.225807 0C231.225806 844.535742 346.83871 693.677419 346.83871 693.677419zM710.193548 693.677419s115.612903 150.858323 115.612904 214.709678a115.612903 115.612903 0 1 1-231.225807 0c0-63.851355 115.612903-214.709677 115.612903-214.709678z" fill="#0F74FF"/>
  <path d="M 188.248 363.072 C 92.488 363.072 14.396 288.296 8.651 193.977 C 27.325 202.507 47.614 206.928 68.145 206.94 C 147.744 206.94 212.278 142.407 212.278 62.807 C 212.278 41.574 207.562 21.468 199.315 3.313 C 293.633 9.058 368.41 87.151 368.41 182.911 C 368.41 282.41 287.748 363.072 188.248 363.072 Z" fill="#FFBA35" style=""/>
  <path d="M 188.248 327.045 C 128.321 327.045 76.956 290.443 55.225 238.384 C 67.311 241.38 79.711 242.918 92.163 242.968 C 178.396 242.968 248.305 173.059 248.305 86.836 C 248.305 74.08 246.604 61.745 243.721 49.887 C 295.779 71.619 332.381 122.984 332.381 182.911 C 332.381 262.51 267.849 327.045 188.248 327.045 Z" fill="#FF9000" style=""/>
  <path d="M 1001.197 525.279 C 1001.197 616.495 927.252 690.44 836.036 690.44 L 241.455 690.44 C 88.886 690.44 -6.47 525.279 69.815 393.15 C 105.218 331.828 170.647 294.053 241.455 294.053 C 242.215 294.053 242.942 294.185 243.701 294.185 C 259.953 163.807 370.942 62.827 505.713 62.827 C 618.717 62.827 714.841 133.88 752.629 233.604 C 763.398 230.301 774.629 227.988 786.487 227.988 C 850.339 227.988 902.1 279.75 902.1 343.601 C 902.1 353.61 900.449 363.123 898.037 372.406 C 960.352 397.595 1001.158 458.066 1001.197 525.279 Z" fill="#7896C7"/>
</svg>