<?xml version="1.0" encoding="utf-8"?>
<svg class="icon" width="140px" height="140.00px" viewBox="0 0 1024 1024" version="1.1" xmlns="http://www.w3.org/2000/svg">
  <path d="M 188.248 363.072 C 92.488 363.072 14.396 288.296 8.651 193.977 C 27.325 202.507 47.614 206.928 68.145 206.94 C 147.744 206.94 212.278 142.407 212.278 62.807 C 212.278 41.574 207.562 21.468 199.315 3.313 C 293.633 9.058 368.41 87.151 368.41 182.911 C 368.41 282.41 287.748 363.072 188.248 363.072 Z" fill="#FFBA35" style=""/>
  <path d="M 188.248 327.045 C 128.321 327.045 76.956 290.443 55.225 238.384 C 67.311 241.38 79.711 242.918 92.163 242.968 C 178.396 242.968 248.305 173.059 248.305 86.836 C 248.305 74.08 246.604 61.745 243.721 49.887 C 295.779 71.619 332.381 122.984 332.381 182.911 C 332.381 262.51 267.849 327.045 188.248 327.045 Z" fill="#FF9000" style=""/>
  <path d="M 1001.197 525.279 C 1001.197 616.495 927.252 690.44 836.036 690.44 L 241.455 690.44 C 88.886 690.44 -6.47 525.279 69.815 393.15 C 105.218 331.828 170.647 294.053 241.455 294.053 C 242.215 294.053 242.942 294.185 243.701 294.185 C 259.953 163.807 370.942 62.827 505.713 62.827 C 618.717 62.827 714.841 133.88 752.629 233.604 C 763.398 230.301 774.629 227.988 786.487 227.988 C 850.339 227.988 902.1 279.75 902.1 343.601 C 902.1 353.61 900.449 363.123 898.037 372.406 C 960.352 397.595 1001.158 458.066 1001.197 525.279 Z" fill="#7896C7"/>
  <path d="M 239.893 708.816 C 239.893 708.816 339.722 839.079 339.722 894.213 C 339.722 971.062 256.531 1019.093 189.978 980.668 C 159.091 962.836 140.064 929.879 140.064 894.213 C 140.064 839.079 239.893 708.816 239.893 708.816 Z M 525.12 708.816 C 525.12 708.816 624.95 839.079 624.95 894.213 C 624.95 971.062 541.758 1019.093 475.206 980.668 C 444.318 962.836 425.29 929.879 425.29 894.213 C 425.29 839.079 525.12 708.816 525.12 708.816 Z M 810.347 708.816 C 810.347 708.816 910.177 839.079 910.177 894.213 C 910.177 971.062 826.985 1019.093 760.432 980.668 C 729.545 962.836 710.518 929.879 710.518 894.213 C 710.518 839.079 810.347 708.816 810.347 708.816 Z" fill="#0F74FF" style=""/>
</svg>