<?xml version="1.0" standalone="no"?><!DOCTYPE svg PUBLIC "-//W3C//DTD SVG 1.1//EN" "http://www.w3.org/Graphics/SVG/1.1/DTD/svg11.dtd">
<svg class="icon" width="140px" height="140.00px" viewBox="0 0 1024 1024" version="1.1"
  xmlns="http://www.w3.org/2000/svg">
  <path d="M990.55094 462.49473a165.017565 165.017565 0 0 1-165.017566 165.017566H231.470139A198.021078 198.021078 0 1 1 231.470139 231.470139c0.759081 0 1.485158 0.132014 2.244239 0.132014C249.952106 101.337287 360.84391 0.445547 495.498243 0.445547c112.905018 0 208.945241 70.990557 246.701261 170.628163 10.759145-3.300351 21.98034-5.610597 33.828601-5.610597A115.512296 115.512296 0 0 1 891.5404 280.975409c0 10.000064-1.650176 19.505076-4.059432 28.779063A164.852548 164.852548 0 0 1 990.55094 462.49473z" fill="#8B9EBA" />
  <path d="M854.213427 800.912753a31.254327 31.254327 0 0 0-43.102588-11.65024l-52.937635 30.825282v-61.650563a31.683373 31.683373 0 0 0-31.584362-31.84839 31.650369 31.650369 0 0 0-31.551359 31.84839v61.650563l-52.970638-30.825282a31.386341 31.386341 0 0 0-43.102588 11.65024 32.013408 32.013408 0 0 0 11.55123 43.465627l52.937634 30.825281-52.937634 30.825282a31.84839 31.84839 0 0 0-11.55123 43.49863 31.28733 31.28733 0 0 0 43.102588 11.65024l52.970638-30.825281v61.617559c0 17.656879 14.059497 31.84839 31.551359 31.84839s31.584362-14.191511 31.584362-31.84839v-61.617559l52.937635 30.825281a31.419344 31.419344 0 0 0 43.102588-11.65024 32.046411 32.046411 0 0 0-11.518226-43.49863l-52.970639-30.825282 52.970639-30.825281a32.013408 32.013408 0 0 0 11.518226-43.465627zM458.17127 800.912753a31.254327 31.254327 0 0 0-43.102588-11.65024l-52.937635 30.825282v-61.650563a31.683373 31.683373 0 0 0-31.584362-31.84839 31.650369 31.650369 0 0 0-31.551358 31.84839v61.650563l-52.970639-30.825282a31.386341 31.386341 0 0 0-43.102588 11.65024 32.013408 32.013408 0 0 0 11.55123 43.465627l52.937635 30.825281-52.937635 30.825282a31.881394 31.881394 0 0 0-11.55123 43.49863 31.28733 31.28733 0 0 0 43.102588 11.65024l52.970639-30.825281v61.617559c0 17.656879 14.059497 31.84839 31.551358 31.84839s31.584362-14.191511 31.584362-31.84839v-61.617559l52.937635 30.825281a31.419344 31.419344 0 0 0 43.102588-11.65024 32.013408 32.013408 0 0 0-11.518226-43.49863l-52.970638-30.825282 52.970638-30.825281a31.980404 31.980404 0 0 0 11.518226-43.465627z" fill="#1367DB" />
</svg>