<?xml version="1.0" standalone="no"?><!DOCTYPE svg PUBLIC "-//W3C//DTD SVG 1.1//EN" "http://www.w3.org/Graphics/SVG/1.1/DTD/svg11.dtd">
<svg class="icon" width="140px" height="140.00px" viewBox="0 0 1024 1024" version="1.1"
  xmlns="http://www.w3.org/2000/svg">
  <path d="M974.044882 462.507338a164.975541 164.975541 0 0 1-164.975541 164.975541H215.157393c-11.383312 0-22.502664-1.154829-33.259069-3.365501C88.489173 608.246731 17.186744 527.474706 17.186744 429.51223a197.970649 197.970649 0 0 1 197.970649-197.970649c0.758887 0 1.48478 0.13198 2.276663 0.13198C233.634654 101.441869 344.498218 0.575823 479.118259 0.575823c112.876265 0 208.89203 70.972478 246.638433 170.58471 10.756405-3.299511 21.974742-5.609168 33.819986-5.609169A115.482879 115.482879 0 0 1 875.059557 281.034243c0 9.997518-1.649755 19.500109-4.058398 28.771734A164.810565 164.810565 0 0 1 974.044882 462.507338z" fill="#8B9EBA" />
  <path d="M639.771441 800.839177a31.246367 31.246367 0 0 0-43.091612-11.647273l-52.924153 30.817431v-61.634862a31.675304 31.675304 0 0 0-31.576319-31.84028 31.642309 31.642309 0 0 0-31.543323 31.84028v61.634862l-52.957149-30.817431a31.378348 31.378348 0 0 0-43.091611 11.647273 32.005255 32.005255 0 0 0 11.548288 43.454557l52.924153 30.817431-52.924153 30.817431a31.840279 31.840279 0 0 0-11.548288 43.487553 31.279363 31.279363 0 0 0 43.091611 11.647273l52.957149-30.817431v61.601867c0 17.652383 14.055916 31.840279 31.543323 31.84028s31.576319-14.187897 31.576319-31.84028v-61.601867l52.924153 30.817431a31.411343 31.411343 0 0 0 43.091612-11.647273 32.005255 32.005255 0 0 0-11.515293-43.487553l-52.957149-30.817431 52.957149-30.817431a31.97226 31.97226 0 0 0 11.515293-43.454557zM276.825251 800.839177a31.246367 31.246367 0 0 0-43.091612-11.647273l-52.924153 30.817431v-61.634862a31.675304 31.675304 0 0 0-31.576319-31.84028 31.642309 31.642309 0 0 0-31.543323 31.84028v61.634862l-52.957149-30.817431a31.378348 31.378348 0 0 0-43.091611 11.647273 32.005255 32.005255 0 0 0 11.548288 43.454557l52.924153 30.817431-52.924153 30.817431a31.840279 31.840279 0 0 0-11.548288 43.487553 31.279363 31.279363 0 0 0 43.091611 11.647273l52.957149-30.817431v61.601867c0 17.652383 14.055916 31.840279 31.543323 31.84028s31.576319-14.187897 31.576319-31.84028v-61.601867l52.924153 30.817431a31.411343 31.411343 0 0 0 43.091612-11.647273 32.005255 32.005255 0 0 0-11.515293-43.487553l-52.957149-30.817431 52.957149-30.817431a31.97226 31.97226 0 0 0 11.515293-43.454557zM1002.717631 800.839177a31.246367 31.246367 0 0 0-43.091612-11.647273l-52.924153 30.817431v-61.634862a31.675304 31.675304 0 0 0-31.576319-31.84028 31.642309 31.642309 0 0 0-31.543323 31.84028v61.634862l-52.957149-30.817431a31.378348 31.378348 0 0 0-43.091611 11.647273 32.005255 32.005255 0 0 0 11.548288 43.454557l52.924153 30.817431-52.924153 30.817431a31.840279 31.840279 0 0 0-11.548288 43.487553 31.279363 31.279363 0 0 0 43.091611 11.647273l52.957149-30.817431v61.601867c0 17.652383 14.055916 31.840279 31.543323 31.84028s31.576319-14.187897 31.576319-31.84028v-61.601867l52.924153 30.817431a31.411343 31.411343 0 0 0 43.091612-11.647273 32.005255 32.005255 0 0 0-11.515293-43.487553l-52.957149-30.817431 52.957149-30.817431a31.97226 31.97226 0 0 0 11.515293-43.454557z" fill="#1367DB" />
</svg>