<?xml version="1.0" encoding="utf-8"?>
<svg class="icon" width="140px" height="140.00px" viewBox="0 0 1024 1024" version="1.1" xmlns="http://www.w3.org/2000/svg">
  <path d="M 279.013 613.523 C 302.606 613.535 325.957 608.781 347.67 599.55 C 444.302 685.912 590.389 685.912 687.023 599.55 C 811.644 652.541 946.902 550.756 930.485 416.332 C 919.699 328.009 844.659 261.647 755.678 261.74 C 748.349 262.015 741.044 262.753 733.806 263.95 C 631.971 107.377 402.723 107.377 300.888 263.95 C 293.633 262.751 286.308 262.013 278.96 261.74 C 143.558 261.74 58.933 408.317 126.635 525.577 C 158.052 579.997 216.12 613.523 278.96 613.523 Z M 541.87 941 L 570.261 924.596 C 581.233 917.847 580.783 901.748 569.452 895.621 C 564.464 892.922 558.447 892.934 553.469 895.656 L 525.135 912.002 L 525.135 878.863 C 525.135 866.003 511.211 857.962 500.072 864.393 C 494.903 867.378 491.717 872.895 491.717 878.863 L 491.717 912.002 L 463.328 895.656 C 452.021 889.478 438.27 897.857 438.574 910.738 C 438.71 916.407 441.707 921.624 446.536 924.596 L 474.928 941 L 446.206 957.571 C 434.899 963.746 434.519 979.845 445.518 986.548 C 450.889 989.821 457.64 989.809 462.998 986.514 L 491.717 969.943 L 491.717 1002.697 C 491.717 1015.559 505.642 1023.596 516.779 1017.165 C 521.949 1014.181 525.135 1008.667 525.135 1002.697 L 525.135 969.943 L 553.857 986.514 C 561.832 991.142 572.051 988.421 576.667 980.439 C 581.332 972.448 578.609 962.19 570.592 957.571 Z M 344.189 828.657 L 372.579 812.195 C 383.409 805.219 382.622 789.132 371.166 783.243 C 366.356 780.773 360.649 780.778 355.845 783.255 L 327.455 799.66 L 327.455 766.518 C 327.455 753.657 313.53 745.618 302.393 752.047 C 297.223 755.035 294.038 760.549 294.038 766.518 L 294.038 799.66 L 265.649 783.255 C 254.197 777.348 240.649 786.053 241.261 798.922 C 241.517 804.325 244.368 809.268 248.912 812.195 L 277.303 828.6 L 248.581 845.171 C 237.421 851.612 237.419 867.721 248.576 874.166 C 253.755 877.157 260.136 877.157 265.315 874.168 L 294.038 857.598 L 294.038 890.351 C 294.038 903.213 307.962 911.253 319.101 904.823 C 324.269 901.837 327.455 896.321 327.455 890.351 L 327.455 857.598 L 356.175 874.168 C 367.625 880.073 381.175 871.368 380.563 858.499 C 380.305 853.098 377.455 848.155 372.911 845.226 Z M 744.907 828.657 L 773.299 812.195 C 784.271 805.447 783.822 789.348 772.489 783.22 C 767.501 780.525 761.486 780.537 756.507 783.255 L 728.172 799.66 L 728.172 766.518 C 728.172 753.657 714.248 745.618 703.11 752.047 C 697.941 755.035 694.756 760.549 694.756 766.518 L 694.756 799.66 L 666.421 783.255 C 655.26 776.792 641.289 784.835 641.271 797.733 C 641.264 803.717 644.45 809.254 649.632 812.253 L 678.021 828.6 L 649.299 845.171 C 638.138 851.612 638.136 867.721 649.293 874.166 C 654.472 877.157 660.855 877.157 666.036 874.168 L 694.756 857.598 L 694.756 890.351 C 694.756 903.213 708.679 911.253 719.818 904.823 C 724.987 901.837 728.172 896.321 728.172 890.351 L 728.172 857.598 L 756.894 874.168 C 768.343 880.073 781.892 871.368 781.281 858.499 C 781.023 853.098 778.175 848.155 773.629 845.226 Z M 511.106 830.864 C 520.318 830.864 527.787 823.399 527.787 814.185 L 527.787 794.522 L 545.129 804.464 C 553.105 809.092 563.324 806.371 567.94 798.389 C 572.608 790.401 569.881 780.14 561.863 775.521 L 544.575 765.58 L 561.643 755.692 C 572.473 748.714 571.686 732.629 560.227 726.74 C 555.42 724.269 549.713 724.271 544.909 726.75 L 527.787 736.636 L 527.787 716.588 C 527.787 703.726 513.862 695.687 502.723 702.117 C 497.555 705.102 494.369 710.618 494.369 716.588 L 494.369 736.581 L 477.357 726.75 C 466.052 720.575 452.3 728.955 452.605 741.834 C 452.739 747.505 455.735 752.721 460.568 755.692 L 477.635 765.525 L 460.291 775.521 C 449.128 781.984 449.151 798.105 460.327 804.541 C 465.516 807.527 471.901 807.518 477.081 804.519 L 494.369 794.522 L 494.369 814.185 C 494.34 823.44 501.851 830.951 511.106 830.922 Z M 950.872 721.337 L 922.153 704.768 L 950.542 688.365 C 961.514 681.614 961.067 665.517 949.733 659.387 C 944.745 656.69 938.729 656.703 933.751 659.421 L 905.361 675.826 L 905.361 642.63 C 905.361 629.768 891.436 621.729 880.299 628.16 C 875.129 631.146 871.944 636.661 871.944 642.63 L 871.944 675.771 L 843.609 659.421 C 832.305 653.246 818.552 661.626 818.858 674.505 C 818.992 680.176 821.988 685.393 826.82 688.365 L 855.21 704.768 L 826.488 721.337 C 815.516 728.088 815.962 744.185 827.296 750.312 C 832.284 753.012 838.301 752.999 843.279 750.279 L 872.001 733.709 L 872.001 766.464 C 872.001 779.305 885.9 787.329 897.021 780.909 C 902.181 777.929 905.361 772.422 905.361 766.464 L 905.361 733.709 L 934.083 750.279 C 945.387 756.455 959.14 748.076 958.835 735.197 C 958.701 729.526 955.704 724.309 950.872 721.337 Z M 179.485 704.768 L 207.875 688.365 C 218.846 681.614 218.399 665.517 207.065 659.387 C 202.077 656.69 196.06 656.703 191.082 659.421 L 162.693 675.826 L 162.693 642.63 C 162.693 629.768 148.769 621.729 137.631 628.16 C 132.462 631.146 129.276 636.661 129.276 642.63 L 129.276 675.771 L 100.887 659.421 C 89.58 653.246 75.83 661.626 76.135 674.505 C 76.269 680.176 79.266 685.393 84.095 688.365 L 112.486 704.768 L 83.764 721.337 C 72.791 728.088 73.24 744.185 84.572 750.312 C 89.562 753.012 95.579 752.999 100.556 750.279 L 129.222 733.709 L 129.222 766.464 C 129.222 779.325 143.145 787.364 154.284 780.934 C 159.452 777.95 162.639 772.432 162.639 766.464 L 162.639 733.709 L 191.358 750.279 C 202.665 756.455 216.418 748.076 216.112 735.197 C 215.978 729.526 212.981 724.309 208.15 721.337 Z" style="fill: rgb(19, 103, 219);"/>
  <rect x="383.268" y="631.198" width="270.678" height="44.852" style="fill: rgb(255, 255, 255);"/>
  <path d="M 981.74 471.092 C 981.74 562.205 907.878 636.067 816.765 636.067 L 222.853 636.067 C 211.47 636.067 200.35 634.912 189.594 632.702 C 96.185 616.831 24.882 536.059 24.882 438.097 C 24.882 328.76 113.517 240.126 222.853 240.126 C 223.612 240.126 224.338 240.258 225.13 240.258 C 241.33 110.026 352.194 9.16 486.814 9.16 C 599.69 9.16 695.706 80.133 733.452 179.745 C 744.209 176.445 755.427 174.136 767.272 174.136 C 831.052 174.136 882.755 225.839 882.755 289.619 C 882.755 299.616 881.105 309.119 878.697 318.39 C 940.941 343.552 981.701 403.954 981.74 471.092 Z" fill="#8B9EBA"/>
</svg>