<?xml version="1.0" encoding="utf-8"?>
<svg class="icon" width="140px" height="140.00px" viewBox="0 0 1034.49 1024" version="1.1" xmlns="http://www.w3.org/2000/svg">
  <path d="M 535.365 707.484 C 520.048 702.693 503.759 711.28 499.054 726.622 L 436.129 928.344 C 431.373 943.657 439.947 959.92 455.266 964.654 C 458.045 965.515 460.941 965.946 463.851 965.929 C 476.532 965.923 487.738 957.673 491.517 945.572 L 554.444 743.79 C 559.206 728.495 550.661 712.238 535.365 707.484 Z M 762.027 248.59 C 754.329 248.879 746.659 249.652 739.058 250.91 C 632.124 86.495 391.393 86.495 284.458 250.91 C 276.857 249.652 269.188 248.879 261.49 248.59 C 119.287 248.439 30.244 402.284 101.217 525.513 C 147.849 606.481 247.599 639.88 333.584 603.315 C 435.058 694.004 588.461 694.004 689.933 603.315 C 820.795 658.964 962.826 552.079 945.59 410.925 C 934.262 318.176 855.463 248.49 762.027 248.59 Z M 252.212 864.72 C 252.212 909.369 300.544 937.272 339.208 914.948 C 357.155 904.589 368.208 885.44 368.208 864.72 C 355.611 823.036 335.996 783.808 310.21 748.722 C 284.424 783.808 264.809 823.036 252.212 864.72 Z M 770.437 858.224 L 731.867 835.952 L 770.029 813.913 C 783.107 805.356 782.017 785.853 768.072 778.806 C 762.304 775.891 755.494 775.896 749.73 778.822 L 711.625 800.804 L 711.625 756.26 C 710.79 740.655 693.375 731.806 680.28 740.333 C 674.847 743.869 671.43 749.786 671.084 756.26 L 671.084 800.804 L 632.919 778.764 C 619.211 771.265 602.523 781.42 602.882 797.042 C 603.043 803.955 606.71 810.314 612.62 813.913 L 650.782 835.952 L 612.155 858.224 C 598.672 866.122 598.794 885.654 612.374 893.382 C 615.404 895.106 618.821 896.02 622.306 896.039 C 625.873 896.056 629.377 895.115 632.455 893.311 L 671.084 871.04 L 671.084 915.122 C 671.084 930.746 688 940.514 701.532 932.701 C 707.813 929.074 711.682 922.372 711.682 915.122 L 711.682 871.04 L 750.196 893.311 C 753.272 895.115 756.778 896.056 760.344 896.039 C 775.973 895.955 785.646 878.985 777.759 865.495 C 776.001 862.486 773.5 859.982 770.494 858.224 Z" style="fill: rgb(15, 116, 255);"/>
  <path d="M 1030.163 499.275 C 1030.163 596.682 951.199 675.647 853.791 675.647 L 218.851 675.647 C 206.681 675.647 194.794 674.411 183.294 672.048 C 83.432 655.081 7.204 568.73 7.204 464 C 7.204 347.11 101.962 252.352 218.851 252.352 C 219.662 252.352 220.438 252.494 221.286 252.494 C 238.605 113.265 357.127 5.431 501.047 5.431 C 621.721 5.431 724.369 81.307 764.724 187.801 C 776.223 184.273 788.216 181.803 800.88 181.803 C 869.066 181.803 924.34 237.079 924.34 305.265 C 924.34 315.953 922.577 326.111 920.002 336.024 C 986.544 362.923 1030.122 427.498 1030.163 499.275 Z" fill="#8B9EBA" style=""/>
</svg>