<?xml version="1.0" encoding="utf-8"?>
<svg class="icon" width="140px" height="140.00px" viewBox="0 0 1024 1024" version="1.1" xmlns="http://www.w3.org/2000/svg">
  <path d="M 252.304 2.547 C 341.326 2.547 413.487 74.709 413.487 163.73 C 413.487 252.752 341.326 324.913 252.304 324.913 C 163.283 324.913 91.121 252.752 91.121 163.73 C 91.121 74.709 163.283 2.547 252.304 2.547 Z" fill="#FFA800" style=""/>
  <path d="M 252.304 58.961 C 310.169 58.961 357.073 105.865 357.073 163.73 C 357.073 221.595 310.169 268.499 252.304 268.499 C 194.439 268.499 147.535 221.595 147.535 163.73 C 147.535 105.865 194.439 58.961 252.304 58.961 Z" fill="#FF9000" style=""/>
  <path d="M 988.845 516.333 C 988.845 607.549 914.9 681.494 823.684 681.494 L 229.103 681.494 C 76.534 681.494 -18.822 516.333 57.463 384.204 C 92.866 322.882 158.295 285.107 229.103 285.107 C 229.863 285.107 230.59 285.239 231.349 285.239 C 247.601 154.861 358.59 53.881 493.361 53.881 C 606.365 53.881 702.489 124.934 740.277 224.658 C 751.046 221.355 762.277 219.042 774.135 219.042 C 837.987 219.042 889.748 270.804 889.748 334.655 C 889.748 344.664 888.097 354.177 885.685 363.46 C 948 388.649 988.806 449.12 988.845 516.333 Z" fill="#7896C7"/>
  <path d="M 647.075 794.188 C 638.506 778.914 619.062 773.658 603.965 782.536 L 551.019 813.367 L 551.019 751.706 C 551.11 734.179 536.957 719.907 519.43 719.853 C 501.908 719.907 487.763 734.185 487.873 751.706 L 487.873 813.367 L 434.894 782.536 C 419.786 773.738 400.403 778.978 391.784 794.188 C 383.094 809.4 388.242 828.771 403.337 837.661 L 456.284 868.491 L 403.337 899.322 C 388.145 908.154 382.975 927.621 391.784 942.827 C 400.365 958.086 419.795 963.337 434.894 954.479 L 487.873 923.649 L 487.873 985.277 C 487.873 1002.936 501.935 1017.13 519.43 1017.13 C 536.924 1017.13 551.019 1002.936 551.019 985.277 L 551.019 923.649 L 603.965 954.479 C 619.075 963.257 638.444 958.022 647.075 942.827 C 655.774 927.615 650.642 908.236 635.555 899.322 L 582.575 868.491 L 635.555 837.661 C 650.638 828.76 655.771 809.391 647.075 794.188 Z" fill="#1367DB"/>
  <path d="M 172.771 686.778 C 172.771 686.778 288.302 837.529 288.302 901.335 C 288.31 990.271 192.039 1045.865 115.015 1001.404 C 79.261 980.766 57.236 942.618 57.24 901.335 C 57.24 837.529 172.771 686.778 172.771 686.778 Z M 865.956 686.778 C 865.956 686.778 981.487 837.529 981.487 901.335 C 981.495 990.271 885.225 1045.865 808.2 1001.404 C 772.446 980.766 750.422 942.618 750.425 901.335 C 750.425 837.529 865.956 686.778 865.956 686.778 Z" fill="#0F74FF"/>
</svg>