<?xml version="1.0" encoding="utf-8"?>
<svg class="icon" width="140px" height="140.00px" viewBox="0 0 1024 1024" version="1.1" xmlns="http://www.w3.org/2000/svg">
  <path d="M 647.183 763.459 C 638.614 748.184 619.17 742.928 604.073 751.807 L 551.127 782.637 L 551.127 720.977 C 551.218 703.45 537.064 689.178 519.537 689.123 C 502.016 689.178 487.871 703.455 487.981 720.977 L 487.981 782.637 L 435.002 751.807 C 419.894 743.009 400.51 748.248 391.892 763.459 C 383.202 778.67 388.35 798.041 403.445 806.932 L 456.391 837.762 L 403.445 868.592 C 388.253 877.424 383.083 896.892 391.892 912.098 C 400.473 927.356 419.902 932.608 435.002 923.75 L 487.981 892.92 L 487.981 954.547 C 487.981 972.207 502.043 986.401 519.537 986.401 C 537.032 986.401 551.127 972.207 551.127 954.547 L 551.127 892.92 L 604.073 923.75 C 619.183 932.528 638.552 927.292 647.183 912.098 C 655.901 896.888 650.766 877.494 635.662 868.592 L 582.683 837.762 L 635.662 806.932 C 650.761 798.042 655.898 778.659 647.183 763.459 Z" fill="#1367DB"/>
  <path d="M 252.304 2.547 C 341.326 2.547 413.487 74.709 413.487 163.73 C 413.487 252.752 341.326 324.913 252.304 324.913 C 163.283 324.913 91.121 252.752 91.121 163.73 C 91.121 74.709 163.283 2.547 252.304 2.547 Z" fill="#FFA800" style="" transform="matrix(1, 0, 0, 1, -49.111628, 1.948736)"/>
  <path d="M 252.304 58.961 C 310.169 58.961 357.073 105.865 357.073 163.73 C 357.073 221.595 310.169 268.499 252.304 268.499 C 194.439 268.499 147.535 221.595 147.535 163.73 C 147.535 105.865 194.439 58.961 252.304 58.961 Z" fill="#FF9000" style="" transform="matrix(1, 0, 0, 1, -49.111628, 1.948736)"/>
  <path d="M 989.546 496.681 C 989.546 587.833 915.653 661.726 824.502 661.726 L 230.343 661.726 C 218.955 661.726 207.831 660.57 197.07 658.359 C 103.622 642.481 32.29 561.676 32.29 463.673 C 32.29 354.291 120.961 265.62 230.343 265.62 C 231.102 265.62 231.829 265.752 232.621 265.752 C 248.828 135.466 359.738 34.558 494.414 34.558 C 607.304 34.558 703.393 105.56 741.155 205.213 C 751.916 201.913 763.139 199.602 774.989 199.602 C 838.795 199.602 890.52 251.327 890.52 315.133 C 890.52 325.135 888.869 334.641 886.46 343.917 C 948.73 369.088 989.507 429.516 989.546 496.681 Z" fill="#8B9EBA"/>
</svg>