<?xml version="1.0" encoding="utf-8"?>
<svg class="icon" width="140px" height="140.00px" viewBox="0 0 1040.563 1024" version="1.1" xmlns="http://www.w3.org/2000/svg">
  <path d="M 538.115 702.914 C 522.847 698.138 506.61 706.698 501.92 721.991 L 439.195 923.069 C 434.455 938.333 443.001 954.544 458.272 959.263 C 461.042 960.122 463.929 960.551 466.829 960.534 C 479.47 960.528 490.639 952.305 494.407 940.242 L 557.133 739.104 C 561.88 723.857 553.363 707.653 538.115 702.914 Z M 764.053 245.484 C 756.38 245.772 748.734 246.543 741.158 247.796 C 634.565 83.907 394.602 83.907 288.008 247.796 C 280.432 246.543 272.788 245.772 265.114 245.484 C 123.365 245.334 34.606 398.688 105.353 521.523 C 151.836 602.233 251.268 635.525 336.978 599.077 C 438.128 689.477 591.041 689.477 692.19 599.077 C 822.634 654.549 964.212 548.005 947.031 407.302 C 935.738 314.849 857.192 245.385 764.053 245.484 Z M 255.865 859.648 C 255.865 904.154 304.043 931.968 342.584 909.715 C 360.473 899.389 371.492 880.301 371.492 859.648 C 358.934 818.097 339.383 778.994 313.678 744.02 C 287.974 778.994 268.422 818.097 255.865 859.648 Z M 772.437 853.173 L 733.99 830.972 L 772.03 809.003 C 785.066 800.473 783.98 781.033 770.079 774.009 C 764.33 771.102 757.542 771.108 751.795 774.024 L 713.813 795.936 L 713.813 751.534 C 712.98 735.978 695.62 727.158 682.567 735.658 C 677.152 739.183 673.746 745.08 673.401 751.534 L 673.401 795.936 L 635.357 773.966 C 621.693 766.491 605.058 776.613 605.416 792.186 C 605.577 799.077 609.232 805.415 615.124 809.003 L 653.164 830.972 L 614.66 853.173 C 601.22 861.045 601.341 880.515 614.879 888.219 C 617.899 889.937 621.304 890.848 624.779 890.867 C 628.334 890.884 631.827 889.946 634.895 888.148 L 673.401 865.948 L 673.401 909.889 C 673.401 925.463 690.262 935.2 703.751 927.412 C 710.012 923.796 713.869 917.116 713.869 909.889 L 713.869 865.948 L 752.261 888.148 C 755.326 889.946 758.821 890.884 762.375 890.867 C 777.955 890.783 787.597 873.868 779.736 860.421 C 777.983 857.421 775.49 854.925 772.494 853.173 Z" style="fill: rgb(15, 116, 255);"/>
  <path d="M 1035.403 501.674 C 1035.403 599.816 955.842 679.376 857.7 679.376 L 217.969 679.376 C 205.708 679.376 193.73 678.131 182.145 675.752 C 81.53 658.656 4.726 571.653 4.726 466.133 C 4.726 348.361 100.198 252.89 217.969 252.89 C 218.786 252.89 219.569 253.032 220.422 253.032 C 237.873 112.753 357.289 4.106 502.294 4.106 C 623.878 4.106 727.302 80.553 767.959 187.85 C 779.546 184.297 791.63 181.808 804.39 181.808 C 873.089 181.808 928.782 237.501 928.782 306.2 C 928.782 316.969 927.003 327.205 924.409 337.192 C 991.454 364.294 1035.361 429.357 1035.403 501.674 Z" fill="#8B9EBA" style=""/>
</svg>