<?xml version="1.0" encoding="utf-8"?>
<svg class="icon" width="140px" height="140.00px" viewBox="0 0 1024 1024" version="1.1" xmlns="http://www.w3.org/2000/svg">
  <path d="M 529.321 697.512 C 512.258 692.175 494.112 701.741 488.871 718.832 L 418.772 943.549 C 413.474 960.608 423.025 978.725 440.091 983.999 C 443.187 984.958 446.413 985.438 449.654 985.419 C 463.781 985.412 476.264 976.222 480.474 962.741 L 550.575 737.957 C 555.88 720.918 546.361 702.808 529.321 697.512 Z M 781.821 186.306 C 773.246 186.628 764.701 187.489 756.234 188.89 C 637.11 5.733 368.936 5.733 249.811 188.89 C 241.344 187.489 232.801 186.628 224.225 186.306 C 65.812 186.138 -33.382 357.521 45.682 494.797 C 97.63 584.995 208.751 622.201 304.538 581.468 C 417.579 682.496 588.469 682.496 701.509 581.468 C 847.289 643.461 1005.511 524.392 986.31 367.147 C 973.69 263.825 885.909 186.195 781.821 186.306 Z M 213.889 872.672 C 213.889 922.411 267.731 953.495 310.803 928.626 C 330.795 917.086 343.109 895.754 343.109 872.672 C 329.075 826.237 307.225 782.537 278.499 743.451 C 249.773 782.537 227.922 826.237 213.889 872.672 Z M 791.19 865.436 L 748.223 840.625 L 790.736 816.074 C 805.304 806.541 804.09 784.815 788.555 776.965 C 782.13 773.717 774.544 773.723 768.122 776.982 L 725.674 801.47 L 725.674 751.848 C 724.744 734.464 705.343 724.607 690.755 734.106 C 684.703 738.045 680.897 744.636 680.511 751.848 L 680.511 801.47 L 637.995 776.918 C 622.725 768.564 604.134 779.876 604.534 797.279 C 604.714 804.981 608.799 812.064 615.383 816.074 L 657.895 840.625 L 614.865 865.436 C 599.845 874.234 599.98 895.993 615.109 904.602 C 618.484 906.522 622.29 907.54 626.173 907.562 C 630.146 907.581 634.05 906.532 637.479 904.523 L 680.511 879.713 L 680.511 928.82 C 680.511 946.225 699.355 957.107 714.43 948.403 C 721.427 944.362 725.737 936.897 725.737 928.82 L 725.737 879.713 L 768.642 904.523 C 772.068 906.532 775.974 907.581 779.946 907.562 C 797.357 907.468 808.133 888.564 799.347 873.536 C 797.388 870.184 794.602 867.394 791.254 865.436 Z" style="fill: rgb(15, 116, 255);"/>
  <rect x="13.153" y="87.534" width="995.659" height="607.188" style="fill: rgb(255, 255, 255);"/>
  <path d="M 993.887 481.783 C 993.887 572.934 919.994 646.827 828.843 646.827 L 234.684 646.827 C 223.296 646.827 212.172 645.671 201.411 643.46 C 107.963 627.583 36.631 546.777 36.631 448.774 C 36.631 339.392 125.302 250.721 234.684 250.721 C 235.443 250.721 236.169 250.853 236.962 250.853 C 253.169 120.567 364.079 19.659 498.755 19.659 C 611.678 19.659 707.734 90.661 745.496 190.315 C 756.257 187.014 767.48 184.703 779.33 184.703 C 843.136 184.703 894.861 236.428 894.861 300.234 C 894.861 310.236 893.21 319.742 890.801 329.018 C 953.07 354.189 993.848 414.617 993.887 481.783 Z" fill="#8B9EBA"/>
  <path d="M 946.929 692.833 C 942.729 685.345 933.197 682.768 925.796 687.121 L 899.841 702.234 L 899.841 672.007 C 899.886 663.415 892.947 656.419 884.355 656.392 C 875.766 656.419 868.832 663.418 868.886 672.007 L 868.886 702.234 L 842.915 687.121 C 835.509 682.808 826.007 685.376 821.782 692.833 C 817.522 700.289 820.046 709.785 827.445 714.144 L 853.4 729.257 L 827.445 744.37 C 819.998 748.7 817.464 758.243 821.782 765.698 C 825.988 773.177 835.513 775.752 842.915 771.41 L 868.886 756.296 L 868.886 786.507 C 868.886 795.164 875.779 802.122 884.355 802.122 C 892.932 802.122 899.841 795.164 899.841 786.507 L 899.841 756.296 L 925.796 771.41 C 933.203 775.713 942.698 773.146 946.929 765.698 C 951.203 758.241 948.686 748.734 941.281 744.37 L 915.31 729.257 L 941.281 714.144 C 948.683 709.786 951.201 700.284 946.929 692.833 Z" style="fill: rgb(15, 116, 255);"/>
</svg>