<?xml version="1.0" encoding="utf-8"?>
<svg class="icon" width="140px" height="140.00px" viewBox="0 0 1024 1024" version="1.1" xmlns="http://www.w3.org/2000/svg">
  <path d="M 509.571 707.948 C 494.568 703.256 478.612 711.667 474.004 726.694 L 412.368 924.281 C 407.71 939.281 416.108 955.21 431.113 959.848 C 433.836 960.691 436.672 961.113 439.522 961.096 C 451.943 961.09 462.919 953.01 466.621 941.156 L 528.259 743.51 C 532.923 728.529 524.553 712.605 509.571 707.948 Z M 731.586 258.46 C 724.046 258.743 716.533 259.501 709.088 260.732 C 604.346 99.688 368.549 99.688 263.806 260.732 C 256.361 259.501 248.849 258.743 241.309 258.46 C 102.021 258.313 14.803 409.005 84.321 529.707 C 129.998 609.016 227.703 641.73 311.926 605.914 C 411.319 694.745 561.578 694.745 660.97 605.914 C 789.15 660.423 928.27 555.729 911.387 417.468 C 900.291 326.62 823.108 258.363 731.586 258.46 Z M 232.221 861.961 C 232.221 905.695 279.562 933.026 317.434 911.16 C 335.013 901.013 345.84 882.257 345.84 861.961 C 333.5 821.132 314.288 782.708 289.03 748.341 C 263.772 782.708 244.56 821.132 232.221 861.961 Z M 739.824 855.599 L 702.044 833.783 L 739.425 812.196 C 752.234 803.814 751.167 784.711 737.507 777.809 C 731.858 774.953 725.188 774.958 719.541 777.824 L 682.218 799.355 L 682.218 755.724 C 681.4 740.439 664.341 731.772 651.515 740.124 C 646.193 743.588 642.847 749.383 642.507 755.724 L 642.507 799.355 L 605.124 777.768 C 591.698 770.422 575.351 780.368 575.703 795.67 C 575.861 802.443 579.453 808.67 585.242 812.196 L 622.622 833.783 L 584.787 855.599 C 571.58 863.335 571.699 882.467 585.001 890.036 C 587.969 891.724 591.315 892.62 594.73 892.639 C 598.223 892.656 601.656 891.733 604.671 889.967 L 642.507 868.152 L 642.507 911.33 C 642.507 926.634 659.076 936.202 672.331 928.549 C 678.484 924.996 682.273 918.432 682.273 911.33 L 682.273 868.152 L 719.998 889.967 C 723.011 891.733 726.445 892.656 729.938 892.639 C 745.246 892.556 754.721 875.935 746.996 862.721 C 745.274 859.774 742.824 857.32 739.88 855.599 Z" style="fill: rgb(15, 116, 255);"/>
  <path d="M 1022.232 500.494 C 1022.232 596.362 943.567 674.077 846.53 674.077 L 214.002 674.077 C 201.878 674.077 190.036 672.861 178.581 670.535 C 79.096 653.838 3.158 568.85 3.158 465.777 C 3.158 350.737 97.556 257.479 214.002 257.479 C 214.809 257.479 215.583 257.618 216.427 257.618 C 233.68 120.591 351.752 14.464 495.126 14.464 C 615.341 14.464 717.6 89.138 757.801 193.948 C 769.257 190.475 781.203 188.046 793.82 188.046 C 861.746 188.046 916.811 242.446 916.811 309.553 C 916.811 320.074 915.053 330.071 912.489 339.826 C 978.779 366.3 1022.191 429.854 1022.232 500.494 Z" fill="#8B9EBA" style=""/>
  <path d="M 922.849 723.757 C 918.649 716.269 909.117 713.692 901.716 718.045 L 875.761 733.158 L 875.761 702.931 C 875.806 694.339 868.867 687.343 860.275 687.316 C 851.686 687.343 844.752 694.342 844.806 702.931 L 844.806 733.158 L 818.835 718.045 C 811.429 713.732 801.927 716.3 797.702 723.757 C 793.442 731.213 795.966 740.709 803.365 745.068 L 829.32 760.181 L 803.365 775.294 C 795.918 779.624 793.384 789.167 797.702 796.622 C 801.908 804.101 811.433 806.676 818.835 802.334 L 844.806 787.22 L 844.806 817.431 C 844.806 826.088 851.699 833.046 860.275 833.046 C 868.852 833.046 875.761 826.088 875.761 817.431 L 875.761 787.22 L 901.716 802.334 C 909.123 806.637 918.618 804.07 922.849 796.622 C 927.123 789.165 924.606 779.658 917.201 775.294 L 891.23 760.181 L 917.201 745.068 C 924.603 740.71 927.121 731.208 922.849 723.757 Z" style="fill: rgb(15, 116, 255);"/>
</svg>