<?xml version="1.0" encoding="utf-8"?>
<svg class="icon" width="140px" height="140.00px" viewBox="0 0 1024 1024" version="1.1" xmlns="http://www.w3.org/2000/svg">
  <path d="M 702.696 846.51 L 731.609 829.841 C 742.955 823.296 742.959 806.922 731.618 800.369 C 726.353 797.327 719.867 797.325 714.601 800.362 L 685.69 817.088 L 685.69 783.356 C 685.69 770.264 671.517 762.082 660.178 768.627 C 654.916 771.664 651.675 777.279 651.675 783.356 L 651.675 817.088 L 622.82 800.419 C 611.474 793.874 597.295 802.066 597.3 815.166 C 597.302 821.245 600.548 826.86 605.812 829.899 L 634.669 846.566 L 605.414 863.403 C 594.068 869.97 594.087 886.357 605.448 892.9 C 610.722 895.937 617.214 895.93 622.479 892.882 L 651.733 875.988 L 651.733 909.377 C 651.733 922.47 665.905 930.653 677.243 924.106 C 682.504 921.069 685.746 915.455 685.746 909.377 L 685.746 876.045 L 714.886 892.882 C 726.232 899.428 740.409 891.236 740.404 878.137 C 740.402 872.058 737.158 866.44 731.892 863.403 Z M 897.71 772.3 L 926.623 755.633 C 937.969 749.067 937.951 732.679 926.59 726.136 C 921.316 723.099 914.825 723.106 909.56 726.155 L 880.647 742.878 L 880.647 709.147 C 880.647 696.056 866.475 687.874 855.138 694.421 C 849.875 697.458 846.633 703.073 846.633 709.147 L 846.633 742.878 L 817.776 726.211 C 806.43 719.665 792.253 727.857 792.258 740.956 C 792.26 747.035 795.505 752.652 800.772 755.689 L 829.682 772.3 L 800.43 789.195 C 789.084 795.74 789.08 812.115 800.421 818.667 C 805.686 821.71 812.172 821.712 817.437 818.674 L 846.633 801.837 L 846.633 835.114 C 846.633 848.206 860.806 856.388 872.142 849.843 C 877.405 846.804 880.647 841.189 880.647 835.114 L 880.647 801.781 L 909.899 818.674 C 921.245 825.22 935.424 817.029 935.42 803.929 C 935.418 797.85 932.173 792.233 926.906 789.195 Z M 225.307 796.848 L 242.653 786.87 C 254.003 780.323 254.007 763.951 242.664 757.396 C 237.401 754.357 230.913 754.354 225.648 757.392 L 208.301 767.426 L 208.301 747.018 C 208.301 733.925 194.126 725.742 182.789 732.288 C 177.527 735.326 174.286 740.94 174.286 747.018 L 174.286 767.426 L 156.939 757.392 C 145.593 750.845 131.413 759.036 131.418 772.136 C 131.42 778.216 134.667 783.833 139.931 786.87 L 157.278 796.848 L 139.649 807.052 C 128.303 813.583 128.28 829.949 139.61 836.508 C 142.205 838.012 145.153 838.803 148.152 838.798 C 151.135 838.794 154.066 838.012 156.656 836.53 L 174.23 826.327 L 174.23 846.339 C 174.23 859.432 188.402 867.612 199.739 861.068 C 205.001 858.028 208.243 852.414 208.243 846.339 L 208.243 826.327 L 225.875 836.53 C 234.013 841.234 244.425 838.439 249.116 830.295 C 253.82 822.156 251.025 811.744 242.881 807.052 Z M 373.553 883.924 L 390.9 873.889 C 402.245 867.345 402.252 850.97 390.909 844.418 C 385.644 841.376 379.158 841.374 373.891 844.411 L 356.489 854.502 L 356.489 834.092 C 356.489 821.003 342.316 812.819 330.977 819.366 C 325.715 822.403 322.476 828.018 322.476 834.092 L 322.476 854.502 L 305.185 844.466 C 293.837 837.9 279.635 846.078 279.621 859.19 C 279.615 865.273 282.855 870.898 288.121 873.948 L 305.468 883.924 L 287.894 894.128 C 276.546 900.661 276.525 917.026 287.856 923.586 C 290.451 925.087 293.398 925.878 296.396 925.876 C 299.386 925.854 302.315 925.051 304.9 923.55 L 322.476 913.402 L 322.476 933.414 C 322.476 946.507 336.648 954.69 347.985 948.143 C 353.248 945.106 356.489 939.491 356.489 933.414 L 356.489 913.346 L 374.063 923.55 C 382.202 928.253 392.613 925.46 397.304 917.315 C 402.017 909.189 399.251 898.784 391.126 894.071 Z M 949.639 481.423 C 949.639 381.713 868.791 300.89 769.082 300.921 C 761.556 301.202 754.058 301.96 746.632 303.188 C 642.109 142.485 406.814 142.485 302.293 303.188 C 294.865 301.96 287.367 301.202 279.843 300.921 C 140.892 300.989 54.122 451.448 123.656 571.749 C 169.236 650.61 266.432 683.155 350.308 647.64 C 449.491 736.281 599.432 736.281 698.614 647.64 C 817.669 698.105 949.621 610.73 949.639 481.423 Z M 525.993 758.072 C 511.045 753.454 495.178 761.793 490.504 776.723 L 428.994 973.89 C 422.493 994.731 440.987 1014.791 462.285 1010.006 C 472.17 1007.783 480.117 1000.456 483.134 990.786 L 544.644 793.616 C 549.331 778.649 540.973 762.718 525.993 758.072 Z" style="fill: rgb(15, 116, 255);"/>
  <rect x="9.282" y="78.823" width="995.659" height="607.188" style="fill: rgb(255, 255, 255);"/>
  <path d="M 990.434 502.754 C 990.434 593.905 916.541 667.798 825.39 667.798 L 231.231 667.798 C 219.843 667.798 208.719 666.642 197.958 664.431 C 104.51 648.554 33.178 567.748 33.178 469.745 C 33.178 360.363 121.849 271.692 231.231 271.692 C 231.99 271.692 232.716 271.824 233.509 271.824 C 249.716 141.538 360.626 40.63 495.302 40.63 C 608.225 40.63 704.281 111.632 742.043 211.286 C 752.804 207.985 764.027 205.674 775.877 205.674 C 839.683 205.674 891.408 257.399 891.408 321.205 C 891.408 331.207 889.757 340.713 887.348 349.989 C 949.617 375.16 990.395 435.588 990.434 502.754 Z" fill="#8B9EBA"/>
  <rect x="317.128" y="673.085" width="414.187" height="54.426" style="fill: rgb(255, 255, 255);"/>
</svg>