<?xml version="1.0" encoding="utf-8"?>
<svg class="icon" width="140px" height="140.00px" viewBox="0 0 1024 1024" version="1.1" xmlns="http://www.w3.org/2000/svg">
  <path d="M656.215589 800.959319a31.259364 31.259364 0 0 0-43.109535-11.652118l-52.946167 30.83025v-61.660499a31.688479 31.688479 0 0 0-31.589453-31.853523 31.65547 31.65547 0 0 0-31.556444 31.853523v61.660499l-52.979176-30.83025a31.3914 31.3914 0 0 0-43.109535 11.652118 32.018567 32.018567 0 0 0 11.553091 43.472633l52.946167 30.830249-52.946167 30.83025a31.853523 31.853523 0 0 0-11.553091 43.505641 31.292373 31.292373 0 0 0 43.109535 11.652118l52.979176-30.83025v61.62749c0 17.659725 14.061763 31.853523 31.556444 31.853524s31.589453-14.193798 31.589453-31.853524v-61.62749l52.946167 30.83025a31.424408 31.424408 0 0 0 43.109535-11.652118 32.051576 32.051576 0 0 0-11.520083-43.505641l-52.979176-30.83025 52.979176-30.830249a32.018567 32.018567 0 0 0 11.520083-43.472633z" fill="#1367DB"/>
  <path d="M181.911676 693.548578S297.442589 844.299916 297.442589 908.105989a115.530914 115.530914 0 1 1-231.061827 0C66.380762 844.299916 181.911676 693.548578 181.911676 693.548578zM875.097157 693.548578s115.530914 150.751338 115.530913 214.557411a115.530914 115.530914 0 1 1-231.061827 0c0-63.806073 115.530914-214.557411 115.530914-214.557411z" fill="#0F74FF"/>
  <path d="M 188.308 365.829 C 92.548 365.829 14.456 291.053 8.711 196.734 C 27.385 205.264 47.674 209.685 68.205 209.697 C 147.804 209.697 212.338 145.164 212.338 65.564 C 212.338 44.331 207.622 24.225 199.375 6.07 C 293.693 11.815 368.47 89.908 368.47 185.668 C 368.47 285.167 287.808 365.829 188.308 365.829 Z" fill="#FFBA35" style=""/>
  <path d="M 188.308 329.802 C 128.381 329.802 77.016 293.2 55.285 241.141 C 67.371 244.137 79.771 245.675 92.223 245.725 C 178.456 245.725 248.365 175.816 248.365 89.593 C 248.365 76.837 246.664 64.502 243.781 52.644 C 295.839 74.376 332.441 125.741 332.441 185.668 C 332.441 265.267 267.909 329.802 188.308 329.802 Z" fill="#FF9000" style=""/>
  <path d="M 997.641 516.607 C 997.641 607.759 923.748 681.652 832.597 681.652 L 238.438 681.652 C 227.05 681.652 215.926 680.496 205.165 678.285 C 111.717 662.407 40.385 581.602 40.385 483.599 C 40.385 374.217 129.056 285.546 238.438 285.546 C 239.197 285.546 239.923 285.678 240.716 285.678 C 256.923 155.392 367.833 54.484 502.509 54.484 C 615.432 54.484 711.488 125.486 749.25 225.139 C 760.011 221.839 771.234 219.528 783.084 219.528 C 846.89 219.528 898.615 271.253 898.615 335.059 C 898.615 345.06 896.964 354.567 894.555 363.843 C 956.824 389.014 997.602 449.442 997.641 516.607 Z" fill="#8B9EBA"/>
</svg>