<?xml version="1.0" standalone="no"?><!DOCTYPE svg PUBLIC "-//W3C//DTD SVG 1.1//EN" "http://www.w3.org/Graphics/SVG/1.1/DTD/svg11.dtd">
<svg class="icon" width="140px" height="115.33px" viewBox="0 0 1243 1024" version="1.1"
  xmlns="http://www.w3.org/2000/svg">
  <path d="M947.90279937 751.92991625a244.86702844 244.86702844 0 0 1-172.62748406-71.21097937l-159.66756469-130.38775032-169.23321937 139.37055094a40.93688531 40.93688531 0 0 1-6.95995594 4.62854156 245.07274125 245.07274125 0 0 1-157.61043562 57.59963719C144.04500781 751.92991625 32 636.66207125 32 494.99439313 32 353.25814344 144.04500781 237.99029844 281.80413969 237.99029844a244.79845687 244.79845687 0 0 1 172.62748406 71.27955093l160.97041406 131.45059969 161.21041219-132.75344906a244.83274312 244.83274312 0 0 1 171.29034938-69.97670156c137.75913188 0 249.76985437 115.267845 249.76985437 257.00409469 0 141.66767813-112.0107225 256.93552312-249.76985437 256.93552312z m-104.67362625-123.73636312c71.51954906 59.519625 176.36460281 48.10255406 234.20423813-25.50841032 57.80535-73.54239375 46.69684875-181.43885625-24.82270031-240.92419594a162.75325969 162.75325969 0 0 0-202.73015157-5.21139562c-1.61141813 1.85141719-167.587515 138.89055281-167.587515 138.89055281s158.91328406 130.28489344 160.93612875 132.75344906zM281.80413969 323.66975844c-91.98799125 0-166.52466469 76.69665937-166.52466469 171.32463468 0 94.59369 74.53667344 171.29034938 166.52466469 171.29034844a163.6446825 163.6446825 0 0 0 110.26216218-42.92544375c2.94855281-2.67426844 156.65044125-127.71348094 156.65044125-127.71348s-160.31898938-131.45059969-162.23897718-133.91915625a162.71897437 162.71897437 0 0 0-104.67362625-38.05690312zM1008.99955719 134.82523437a51.42824719 51.42824719 0 1 1 0.03428531-102.85649437 51.42824719 51.42824719 0 0 1-0.03428531 102.85649437zM220.74166719 991.89411875A51.39396187 51.39396187 0 1 1 220.77595344 889.14048031a51.39396187 51.39396187 0 0 1-0.03428625 102.75363844zM220.43309844 134.68809219a51.35967656 51.35967656 0 1 1 0-102.71935219 51.35967656 51.35967656 0 0 1 0 102.71935219zM1009.13669844 889.14048031a51.42824719 51.42824719 0 1 1-0.03428532 102.89077969A51.42824719 51.42824719 0 0 1 1009.13669844 889.14048031z" fill="#84A1CB" />
</svg>