<?xml version="1.0" standalone="no"?><!DOCTYPE svg PUBLIC "-//W3C//DTD SVG 1.1//EN" "http://www.w3.org/Graphics/SVG/1.1/DTD/svg11.dtd">
<svg class="icon" width="140px" height="115.33px" viewBox="0 0 1243 1024" version="1.1"
  xmlns="http://www.w3.org/2000/svg">
  <path d="M947.67388906 751.93850281a244.80582938 244.80582938 0 0 1-172.58433937-71.19318187l-159.62765907-130.35516188-169.19092312 139.33571719a40.92665344 40.92665344 0 0 1-6.95821687 4.62738562 244.94293688 244.94293688 0 0 1-157.57104376 57.58524094C144.01700469 751.93850281 32 636.69946625 32 495.06719469 32 353.36636938 144.01700469 238.12733281 281.74170688 238.12733281a244.73727469 244.73727469 0 0 1 172.58433843 71.26173656l160.93018313 131.41774688 161.17012125-132.72027094a244.77155156 244.77155156 0 0 1 171.24753937-69.9592125C1085.39859031 238.12733281 1197.41559594 353.36636938 1197.41559594 495.06719469c0 141.63227156-112.01700469 256.87130812-249.74170688 256.87130812z m-104.64746531-123.70543781c71.50167469 59.50474969 176.32052437 48.09053156 234.14570344-25.50203531 57.79090312-73.52401312 46.68517781-181.39350938-24.81649594-240.86398219a162.71258344 162.71258344 0 0 0-202.67948344-5.21009344c-1.61101594 1.85095406-167.54563031 138.85584094-167.54563031 138.85584094s158.87356687 130.25233125 160.89590625 132.72027zM281.74170688 323.78537938c-91.96500094 0-166.48304531 76.67749125-166.48304532 171.28181531 0 94.57004812 74.51804437 171.24753844 166.48304531 171.24753937a163.60378313 163.60378313 0 0 0 110.23460438-42.91471593c2.94781594-2.67360094 156.61129031-127.68156187 156.61129031-127.68156188s-160.27892156-131.41774688-162.19842937-133.88568563a162.67830656 162.67830656 0 0 0-104.64746532-38.04739124zM1008.75537687 134.98805281a51.41539406 51.41539406 0 1 1 0.03427688-102.83078812 51.41539406 51.41539406 0 0 1-0.03427688 102.83078812zM614.7077975 991.94556219a68.55385875 68.55385875 0 1 1-0.03427687-137.07344063A68.55385875 68.55385875 0 0 1 614.7077975 991.94556219z m0-822.64630313a68.55385875 68.55385875 0 1 1-0.03427687-137.07344062A68.55385875 68.55385875 0 0 1 614.7077975 169.29925906zM220.69449594 991.84273063A51.38111719 51.38111719 0 1 1 220.72877281 889.11477406a51.38111719 51.38111719 0 0 1-0.03427687 102.72795657zM220.38600313 134.85094531a51.38111719 51.38111719 0 1 1-1e-8-102.76223437 51.38111719 51.38111719 0 0 1 0 102.76223437zM1008.89248437 889.11477406a51.41539406 51.41539406 0 1 1-0.03427687 102.865065A51.41539406 51.41539406 0 0 1 1008.89248437 889.11477406z" fill="#84A1CB" />
</svg>